<svg xmlns="http://www.w3.org/2000/svg" viewBox="0 0 50 49.76"><defs><style>.a{fill:#052839;}.b{fill:#45c300;}</style></defs><title>logo-gear-along</title><path class="a" d="M49.93,25.8c-0.07-1-.07-1.94-0.12-2.92,0-2.18-1.82-2.25-3.55-2.57A4.32,4.32,0,0,1,44,19.56a7.19,7.19,0,0,1-1.12-2.47,3.68,3.68,0,0,1-.51-2.36A10.64,10.64,0,0,1,44,12.26a3.64,3.64,0,0,0,.92-2.17c-0.07-1-1-1.69-1.6-2.33C42.19,6.68,40.82,4.51,39,5.14c-1.57.55-2.94,2.67-4.69,2.37a15.94,15.94,0,0,1-3.05-1.16,2.39,2.39,0,0,1-1.56-1.67c-0.36-1.31,0-4.29-1.89-4.52-1.2-.15-3.08.07-4.48,0.07-0.74,0-1.71-.23-2.26.24-1.39,1.21-.4,3.89-1.58,5.28-0.63.75-1.84,1-2.72,1.34a3.09,3.09,0,0,1-2.48.3c-1.57-.65-3-3-5-2.19A8.26,8.26,0,0,0,7,7.15,7.61,7.61,0,0,0,4.93,9.72c-0.61,1.89,1.9,3.37,2.38,5,0.31,1-.26,1.87-0.64,2.79S6.1,19.38,5.25,19.86c-1.37.78-4,.15-5,1.6-0.46.71-.21,2-0.21,2.76v1.92c0,1-.23,2.09.74,2.75,1.53,1,3.86.17,5.16,1.63a6.66,6.66,0,0,1,.94,2.15c0.34,0.86.85,1.58,0.54,2.53-0.54,1.68-3,2.94-2.33,4.94C5.57,41.49,7.52,43,8.58,44c1.8,1.61,3.28.14,4.87-1a2.76,2.76,0,0,1,2.38-.65,13.19,13.19,0,0,1,2.94,1.14c1.57,0.88,1.25,3.25,1.7,4.75s1.79,1.46,3.12,1.46c1.75,0,4.65.6,5.42-1.39,0.71-1.84,0-4.11,2.17-5a17.41,17.41,0,0,1,2.74-1.12,2.94,2.94,0,0,1,2.45.84c1.42,1,3.09,2.36,4.71,1,0.57-.48,1.07-1.07,1.6-1.6a8.74,8.74,0,0,0,2-2.2c0.92-2.06-1.91-3.58-2.26-5.42a4.58,4.58,0,0,1,.72-2.66,4.08,4.08,0,0,1,1.35-2.24c1.48-.92,4.22-0.1,5.24-1.78A3.8,3.8,0,0,0,49.93,25.8Zm-10.49,2a15.06,15.06,0,0,1-14.53,12,15.09,15.09,0,0,1-14-9.77,15,15,0,0,1,4.45-16.5,14.81,14.81,0,0,1,17.19-1.31A15,15,0,0,1,39.45,27.76Z"/><path d="M27.4,0.22a1.45,1.45,0,0,1,.24,0c-0.1-.31-5.51-0.27-5.59,0H27.4Z"/><path class="b" d="M36.92,21.21a12.58,12.58,0,0,0-24.16.32A12.74,12.74,0,0,0,17.82,35.2,12.54,12.54,0,0,0,36.92,21.21ZM34,19.87H31.22a2,2,0,0,1-.59,0,1.52,1.52,0,0,1-.61-1.2,19.32,19.32,0,0,0-1.45-3.52A11.28,11.28,0,0,1,34,19.87ZM22.56,17.24a14.39,14.39,0,0,1,1.34-2.38,1.33,1.33,0,0,1,1.46-.39,2.19,2.19,0,0,1,1.27,1.42A20.38,20.38,0,0,1,28.27,20H24.08c-0.33,0-2.21.25-2.42-.1S22.4,17.6,22.56,17.24Zm-1.39-2.09c-0.5,1.09-1,2.19-1.39,3.32-0.3.84-.25,1.38-1.18,1.4s-1.92,0-2.88,0A11.45,11.45,0,0,1,21.17,15.15Zm-6.71,10.5C14.38,24,14,21.88,16.21,21.87a8.56,8.56,0,0,1,2.63.19c0.34,0.26-.07,2.48-0.07,3s0.44,2.17,0,2.65-1.45.17-1.92,0.17a3.77,3.77,0,0,1-1.9-.25A2.81,2.81,0,0,1,14.46,25.65Zm1.31,4.28c0.91,0,1.82,0,2.73,0s0.88,0.35,1.14,1.24A34.61,34.61,0,0,0,21,34.6,11.16,11.16,0,0,1,15.78,29.93Zm10.07,5a1.43,1.43,0,0,1-2.24,0A10.77,10.77,0,0,1,22.17,32c-0.27-.66-1.06-1.83-0.17-2.11a3.9,3.9,0,0,1,1,0h5A16,16,0,0,1,25.84,34.89Zm1.68-7.05c-0.88,0-1.75,0-2.63,0s-3.75.51-3.91-.63a19.11,19.11,0,0,1-.09-3.27c0-.62-0.13-1.62.51-1.91a5.62,5.62,0,0,1,1.91,0l3,0c0.65,0,1.85-.32,2.21.33s0.18,2.11.17,2.86c0,0.51.15,2.1-.31,2.5A1.47,1.47,0,0,1,27.52,27.84Zm0.95,6.81a27.51,27.51,0,0,0,1.43-3.48c0.26-.86.25-1.31,1.19-1.34s1.92,0,2.87,0A10.38,10.38,0,0,1,28.47,34.65Zm6-6.8a9,9,0,0,1-2.66,0c-1.29,0-1.09-.3-1-1.42a14.32,14.32,0,0,0,0-2.38c0-.52-0.41-1.59.09-1.93s2.26,0,2.8,0c0.77,0,1.28,0,1.36,1S35.77,27.36,34.5,27.85Z"/></svg>