<?xml version="1.0" standalone="no"?>
<!DOCTYPE svg PUBLIC "-//W3C//DTD SVG 1.1//EN" "http://www.w3.org/Graphics/SVG/1.1/DTD/svg11.dtd" >
<svg xmlns="http://www.w3.org/2000/svg">
<metadata>Generated by IcoMoon</metadata>
<defs>
<font id="icomoon" horiz-adv-x="1024">
<font-face units-per-em="1024" ascent="960" descent="-64" />
<missing-glyph horiz-adv-x="1024" />
<glyph unicode="&#x20;" horiz-adv-x="512" d="" />
<glyph unicode="&#xe900;" glyph-name="Icon-site-WORK-01" d="M1058.133 680.107l-507.904-509.269-509.269 509.269z" />
<glyph unicode="&#xe901;" glyph-name="Icon-site-WORK-02" d="M40.96 170.837l509.269 509.269 507.904-509.269z" />
<glyph unicode="&#xe902;" glyph-name="Icon-site-WORK-03" d="M300.373 939.52l509.269-509.269-509.269-507.904z" />
<glyph unicode="&#xe903;" glyph-name="Icon-site-WORK-04" d="M809.643-77.653l-509.269 507.904 509.269 509.269z" />
<glyph unicode="&#xe904;" glyph-name="Icon-site-WORK-05" d="M72 438.4c3.2 8 6.4 16 12.8 22.4 9.6 9.6 19.2 14.4 32 14.4 1.6 0 3.2 0 4.8 0 249.6 0 500.8 0 750.4 0 1.6 0 4.8 0 8 0-1.6 1.6-3.2 3.2-4.8 4.8-124.8 124.8-249.6 249.6-374.4 374.4-27.2 27.2-14.4 73.6 20.8 81.6 0 0 0 0 1.6 1.6 6.4 0 12.8 0 19.2 0 14.4-3.2 25.6-14.4 35.2-24 148.8-148.8 299.2-299.2 448-448 19.2-19.2 24-54.4 0-76.8-152-150.4-304-302.4-454.4-454.4-19.2-19.2-44.8-20.8-62.4-8-24 16-28.8 49.6-8 72 1.6 1.6 1.6 3.2 3.2 3.2 126.4 126.4 251.2 251.2 377.6 377.6 1.6 1.6 3.2 3.2 6.4 4.8-3.2 0-6.4 0-8 0-252.8 0-504 0-756.8 0-25.6 0-40 11.2-48 35.2 0 0 0 0-1.6 1.6-1.6 3.2-1.6 9.6-1.6 17.6z" />
<glyph unicode="&#xe905;" glyph-name="Icon-site-WORK-06" d="M1040 414.4c-3.2-8-6.4-16-12.8-22.4-9.6-9.6-19.2-14.4-32-14.4-1.6 0-3.2 0-4.8 0-249.6 0-500.8 0-750.4 0-1.6 0-4.8 0-8 0 1.6-1.6 3.2-3.2 4.8-4.8 124.8-124.8 249.6-249.6 374.4-374.4 27.2-27.2 14.4-73.6-20.8-81.6 0 0 0 0-1.6-1.6-6.4 0-12.8 0-19.2 0-14.4 3.2-25.6 14.4-35.2 24-148.8 148.8-299.2 299.2-448 448-19.2 19.2-24 54.4 0 76.8 152 150.4 304 302.4 454.4 454.4 19.2 19.2 44.8 20.8 62.4 8 24-16 28.8-49.6 8-72-1.6-1.6-1.6-3.2-3.2-3.2-124.8-123.2-251.2-249.6-376-376-1.6-1.6-3.2-3.2-6.4-4.8 3.2 0 6.4 0 8 0 252.8 0 504 0 756.8 0 25.6 0 40-11.2 48-35.2 0 0 0 0 1.6-1.6 0-6.4 0-12.8 0-19.2z" />
<glyph unicode="&#xe906;" glyph-name="Icon-site-WORK-07" d="M545.6-56c-8 3.2-16 6.4-22.4 12.8-9.6 9.6-14.4 19.2-14.4 32 0 1.6 0 3.2 0 4.8 0 249.6 0 500.8 0 750.4 0 1.6 0 4.8 0 8-1.6-1.6-3.2-3.2-4.8-4.8-124.8-124.8-249.6-249.6-374.4-374.4-27.2-28.8-72-16-80 19.2 0 0 0 0-1.6 1.6 0 6.4 0 12.8 0 19.2 3.2 14.4 14.4 25.6 24 35.2 148.8 148.8 299.2 299.2 448 448 19.2 19.2 54.4 24 76.8 0 150.4-152 302.4-304 454.4-454.4 19.2-19.2 20.8-44.8 8-62.4-16-24-49.6-28.8-72-8-1.6 1.6-3.2 1.6-3.2 3.2-124.8 126.4-249.6 252.8-376 377.6-1.6 1.6-3.2 3.2-4.8 6.4 0-3.2 0-6.4 0-8 0-252.8 0-504 0-756.8 0-25.6-11.2-40-35.2-48 0 0 0 0-1.6-1.6-6.4 0-12.8 0-20.8 0z" />
<glyph unicode="&#xe907;" glyph-name="Icon-site-WORK-08" d="M569.6 912c8-3.2 16-6.4 22.4-12.8 9.6-9.6 14.4-19.2 14.4-32 0-1.6 0-3.2 0-4.8 0-249.6 0-500.8 0-750.4 0-1.6 0-4.8 0-8 1.6 1.6 3.2 3.2 4.8 4.8 124.8 124.8 249.6 249.6 374.4 374.4 27.2 27.2 73.6 14.4 81.6-20.8 0 0 0 0 1.6-1.6 0-6.4 0-12.8 0-19.2-3.2-14.4-14.4-25.6-24-35.2-148.8-148.8-299.2-299.2-448-448-19.2-19.2-54.4-24-76.8 0-152 152-304 304-456 454.4-19.2 19.2-20.8 44.8-8 62.4 16 24 49.6 28.8 72 8 1.6-1.6 3.2-1.6 3.2-3.2 126.4-126.4 251.2-251.2 377.6-377.6 1.6-1.6 3.2-3.2 4.8-6.4 0 3.2 0 6.4 0 8 0 252.8 0 504 0 756.8 0 25.6 11.2 40 35.2 48 0 0 0 0 1.6 1.6 6.4 1.6 12.8 1.6 19.2 1.6z" />
<glyph unicode="&#xe908;" d="M801.488 544.744c-34.977 0-69.953 0-104.93 0-15.628 0-16.372 0.744-16.372 16.372s0.744 31.256 0 46.14c-0.744 12.651-5.209 17.116-17.86 17.86-4.465 0-8.93 0-14.14 0-55.070 0-110.884 0-165.953 0-14.14 0-14.884 0.744-15.628 14.884 0 15.628 0.744 31.256-0.744 46.14-1.488 14.14-6.698 19.349-20.837 19.349-14.884 0.744-29.767 0-43.907 0-52.093 0-103.442 0-155.535 0-7.442 0-15.628 0.744-20.093-8.186 0-167.442 0-334.884 0-502.326 5.209-11.163 15.628-8.186 24.558-8.186 182.326 0 363.907 0 546.233 0 3.721 0 7.442 0 11.907 0 5.953 0 10.419 2.977 12.651 8.186 0 112.372 0 224.744 0 337.116-2.977 11.907-11.163 12.651-19.349 12.651zM750.884 518.698c5.953 5.209 18.605 1.488 28.279 1.488 20.837 0 20.837 0 20.837-20.837 0-11.163 0-21.581 0-32.744 0-5.953-1.488-8.93-8.186-8.93-11.907 0.744-23.814 0.744-35.721 0-5.209 0-7.442 1.488-7.442 7.442 0.744 8.186 0 16.372 0 26.047 1.488 8.186-4.465 21.581 2.233 27.535zM666.047 520.186c17.86 0 35.721 0 53.581 0 5.953 0 8.93-0.744 8.93-8.186-0.744-14.884-0.744-30.512 0-45.395 0-5.953-1.488-8.93-8.186-8.93-35.721 0-71.442 0-107.163 0-6.698 0-8.186 2.233-8.186 8.93 0.744 14.884 0.744 29.767 0 43.907 0 6.698 1.488 9.674 8.93 8.93 17.116 0 34.977 0.744 52.093 0.744zM532.837 428.651c0 6.698 1.488 9.674 8.93 9.674 34.977-0.744 70.698-0.744 105.674 0 7.442 0 8.93-2.977 8.93-9.674-0.744-14.14-0.744-29.023 0-43.163 0-7.442-1.488-10.419-9.674-9.674-17.116 0.744-34.977 0-52.093 0s-34.977 0.744-52.093 0c-8.186 0-9.674 2.233-9.674 9.674 0.744 14.884 0.744 29.023 0 43.163zM541.023 602.047c17.86 0 36.465 0 54.326 0 17.116 0 34.977-0.744 52.093 0 7.442 0 8.93-2.233 8.93-8.93-0.744-14.884-0.744-29.767 0-45.395 0-5.209-1.488-7.442-7.442-7.442-36.465 0-72.93 0-108.651 0-5.209 0-7.442 1.488-7.442 7.442 0 15.628 0.744 31.256 0 46.14 0 6.698 2.233 8.186 8.186 8.186zM577.488 520.186c5.953 0 6.698-2.233 6.698-7.442 0-15.628-0.744-31.256 0-46.14 0-7.442-2.977-8.186-8.93-8.186-17.86 0-35.721 0-53.581 0-17.116 0-34.977 0-52.093 0-6.698 0-8.93 1.488-8.93 8.186 0.744 15.628 0 31.256 0 46.14 0 5.209 1.488 7.442 7.442 7.442 37.209 0 73.674 0 109.395 0zM317.767 513.488c0 5.953 2.233 6.698 7.442 6.698 17.86 0 35.721 0 53.581 0s35.721 0 53.581 0c7.442 0 8.93-2.233 8.93-8.93-0.744-14.884-0.744-29.767 0-43.907 0-5.953-1.488-8.93-8.186-8.93-35.721 0-71.442 0-107.163 0-5.953 0-8.186 1.488-8.186 7.442 0.744 15.628 0.744 31.256 0 47.628zM389.953 430.14c0 5.953 2.233 8.186 8.186 8.186 35.721 0 71.442 0 107.163 0 6.698 0 8.93-2.233 8.186-8.93-0.744-14.884-0.744-30.512 0-45.395 0-6.698-2.233-8.186-8.93-8.186-17.86 0-35.721 0-53.581 0s-35.721 0-53.581 0c-5.953 0-8.186 1.488-7.442 7.442 0 16.372 0 31.256 0 46.884zM504.558 602.047c5.953 0 8.93-0.744 8.93-8.186-0.744-14.884-0.744-30.512 0-45.395 0-7.442-2.977-8.186-8.93-8.186-17.86 0-35.721 0-53.581 0s-35.721 0-53.581 0c-5.953 0-8.186 1.488-8.186 7.442 0.744 15.628 0.744 31.256 0 46.14 0 6.698 2.233 7.442 8.186 7.442 35.721 0.744 71.442 0.744 107.163 0.744zM317.767 674.977c0 6.698 0.744 9.674 8.93 9.674 34.977-0.744 70.698-0.744 105.674 0 7.442 0 8.93-2.233 8.93-9.674-0.744-14.884-0.744-29.767 0-43.907 0-6.698-1.488-8.93-8.186-8.186-17.86 0.744-35.721 0-53.581 0s-35.721 0-53.581 0c-6.698 0-8.186 2.233-8.186 8.186 0.744 14.884 0.744 29.023 0 43.907zM248.558 682.419c5.953 5.209 18.605 1.488 28.279 1.488 20.837 0 20.837 0 20.837-20.837 0-11.163 0-22.326 0-33.488 0-5.209-1.488-7.442-7.442-7.442-12.651 0.744-24.558 0-37.209 0-5.209 0-7.442 1.488-7.442 6.698 0.744 8.186 0 16.372 0 26.047 1.488 8.93-3.721 21.581 2.977 27.535zM246.326 594.605c0 5.953 1.488 7.442 7.442 7.442 35.721 0 72.186 0 107.907 0 5.953 0 8.186-1.488 7.442-8.186-0.744-15.628 0-31.256 0-46.14 0-5.953-2.233-7.442-7.442-7.442-17.86 0-36.465 0-54.326 0-17.116 0-34.977 0.744-52.093 0-8.186 0-9.674 2.233-9.674 9.674 0.744 14.884 0.744 29.767 0.744 44.651zM246.326 512.744c0 5.953 1.488 7.442 7.442 7.442 12.651-0.744 24.558-0.744 37.209 0 5.209 0 7.442-1.488 7.442-7.442-0.744-7.442 0-15.628 0-25.302-1.488-8.186 4.465-22.326-2.233-28.279-5.953-5.209-19.349-1.488-29.023-1.488-20.093 0-20.093 0-20.093 20.093-0.744 11.907-0.744 23.814-0.744 34.977zM254.512 438.326c17.86-0.744 35.721 0 53.581 0 17.116 0 34.977 0 52.093 0 6.698 0 9.674-0.744 9.674-8.93-0.744-14.884-0.744-30.512 0-45.395 0-5.953-0.744-8.186-7.442-8.186-36.465 0-72.93 0-108.651 0-5.953 0-6.698 2.233-6.698 7.442 0 15.628 0.744 31.256 0 46.14-1.488 7.442 0.744 8.93 7.442 8.93zM246.326 348.279c0 5.953 1.488 7.442 7.442 7.442 12.651-0.744 24.558-0.744 37.209 0 5.953 0 7.442-1.488 7.442-7.442-0.744-8.186 0-16.372 0-26.047-0.744-7.442 4.465-20.093-1.488-26.047s-18.605-1.488-28.279-1.488c-21.581 0-21.581 0-21.581 21.581-0.744 10.419-0.744 21.581-0.744 32zM369.116 219.535c0-6.698-2.233-7.442-8.186-7.442-35.721 0-72.186 0-107.907 0-5.953 0-7.442 1.488-7.442 7.442 0 15.628 0 32 0 47.628 0 5.953 2.233 6.698 7.442 6.698 17.86 0 35.721 0 53.581 0s36.465 0 54.326 0c5.953 0 8.186-1.488 8.186-7.442 0-15.628 0-31.256 0-46.884zM325.209 293.953c-5.953 0-7.442 1.488-7.442 7.442 0 14.884 0.744 30.512 0 45.395 0 6.698 1.488 9.674 8.93 8.93 17.116-0.744 34.977 0 52.093 0 17.86 0 36.465 0 54.326 0 5.953 0 8.186-1.488 8.186-8.186-0.744-15.628 0-31.256 0-46.14 0-5.953-1.488-7.442-7.442-7.442-36.465 0.744-72.186 0.744-108.651 0zM513.488 220.279c0-6.698-2.233-8.186-8.93-8.186-17.86 0-35.721 0-53.581 0-17.116 0-34.977 0-52.093 0-7.442 0-8.93 2.233-8.93 8.93 0.744 14.884 0.744 29.767 0 43.907 0 5.953 0.744 8.93 8.186 8.93 35.721-0.744 71.442 0 107.163 0 6.698 0 8.93-1.488 8.93-8.186-1.488-15.628-1.488-30.512-0.744-45.395zM469.581 293.953c-5.953 0-8.186 1.488-8.186 7.442 0.744 14.884 0.744 30.512 0 45.395 0 6.698 1.488 8.93 8.186 8.93 35.721 0 71.442 0 106.419 0 6.698 0 8.93-1.488 8.186-8.186-0.744-14.884-0.744-29.023 0-43.907 0-6.698-1.488-9.674-8.93-8.93-17.86 0.744-35.721 0-53.581 0-17.116-0.744-34.233 0-52.093-0.744zM656.372 220.279c0-6.698-2.233-8.186-8.93-8.186-34.977 0-70.698 0-105.674 0-7.442 0-9.674 2.233-8.93 8.93 0.744 14.884 0.744 29.767 0 43.907 0 7.442 2.977 8.93 9.674 8.93 17.116-0.744 34.977 0 52.093 0 17.86 0 35.721 0 53.581 0 6.698 0 8.93-1.488 8.186-8.186 0-14.884 0-30.512 0-45.395zM612.465 293.953c-5.953 0-8.186 2.233-7.442 8.186 0.744 15.628 0 31.256 0 46.14 0 5.953 2.233 7.442 7.442 7.442 36.465 0 72.93 0 108.651 0 5.953 0 6.698-2.233 6.698-7.442 0-15.628-0.744-31.256 0-46.14 0-5.953-1.488-8.186-7.442-7.442-17.86 0.744-36.465 0-54.326 0-17.86-0.744-35.721 0-53.581-0.744zM800 218.791c0-5.953-1.488-7.442-7.442-7.442-35.721 0-72.186 0-107.907 0-5.953 0-8.186 1.488-8.186 8.186 0.744 15.628 0.744 31.256 0 46.14 0 6.698 2.233 7.442 8.186 7.442 17.86 0 35.721 0 53.581 0s36.465 0 54.326 0c5.209 0 7.442-1.488 7.442-6.698 0-15.628 0-31.256 0-47.628zM800 301.395c0-5.953-1.488-7.442-7.442-7.442-12.651 0.744-24.558 0.744-37.209 0-5.953 0-7.442 1.488-7.442 7.442 0.744 8.186 0 16.372 0 26.047 0.744 7.442-4.465 20.093 1.488 26.047s18.605 1.488 28.279 1.488c21.581 0 21.581 0 21.581-21.581 0.744-10.419 0.744-21.581 0.744-32zM800 382.512c0-5.953-2.233-6.698-7.442-6.698-17.86 0-35.721 0-53.581 0-17.116 0-34.977 0-52.093 0-7.442 0-11.163 1.488-10.419 9.674 0.744 14.14 0.744 28.279 0 43.163 0 6.698 1.488 9.674 8.93 9.674 35.721-0.744 71.442 0 106.419 0 5.953 0 8.186-1.488 8.186-7.442 0-16.372 0-32 0-48.372z" />
<glyph unicode="&#xe909;" d="M1035.163-64h-1024v1024h1024v-1024zM32-43.163h981.581v982.326h-981.581v-982.326z" />
<glyph unicode="&#xe90a;" d="M1035.163-64h-1024v1024h1024v-1024zM32-43.163h981.581v982.326h-981.581v-982.326z" />
<glyph unicode="&#xe90b;" d="M820.837 286.512c0 12.651-2.233 14.884-14.14 16.372-12.651 2.233-15.628 8.186-7.442 18.605 4.465 5.953 5.953 11.907 4.465 18.605s-0.744 13.395-0.744 19.349c0 32 0 64.744 0 96.744 0 31.256 0 62.512 0 93.767 0 10.419-2.977 17.116-14.14 18.605-5.209 0.744-8.186 3.721-10.419 8.186s-4.465 9.674-7.442 14.14c-42.419 78.14-105.674 133.209-193.488 148.093-68.465 11.907-114.605 2.977-127.256 0-78.884-19.349-143.628-61.023-182.326-132.465-61.023-110.884-36.465-201.674-34.233-213.581 11.907-55.814 38.698-102.698 79.628-142.14 81.116-76.651 175.628-99.721 282.791-70.698 12.651 2.977 21.581 3.721 30.512-6.698 7.442-8.93 13.395-8.186 23.070-2.233 11.907 8.186 17.86 5.953 19.349-8.93 1.488-8.93 5.209-12.651 14.14-12.651 11.163 0 22.326 0.744 33.488 0 10.419-0.744 15.628 4.465 17.86 14.14 3.721 14.14 5.953 14.884 18.605 7.442 8.186-5.209 16.372-5.209 23.070 1.488 7.442 6.698 14.884 13.395 21.581 20.837s7.442 15.628 1.488 24.558c-7.442 11.907-6.698 14.884 7.442 18.605 9.674 2.233 14.14 8.186 13.395 17.86 0 11.163 0.744 21.581 0.744 32zM772.465 546.977c5.953 0 8.186-2.233 7.442-8.186-0.744-14.14 0-28.279 0-42.419-1.488-27.535-21.581-46.884-49.116-48.372-0.744 0-1.488 0-2.233 0-19.349 0-38.698 0-58.047 0-20.093 0-40.186 0-60.279 0-5.953 0-8.93 1.488-8.186 8.186 0.744 34.977 2.233 31.256-32 31.256-26.791 0-27.535 0-26.791-26.791 0-9.674-2.233-12.651-12.651-12.651-37.209 0.744-73.674 0-110.884 0-34.233 0-54.326 20.093-54.326 54.326 0 11.907 0 23.814 0 35.721 0 5.953 1.488 8.93 8.186 8.93 133.209-0.744 266.419-0.744 398.884 0zM562.605 438.326c0 5.953 0.744 11.907 0 17.116-1.488 10.419 2.233 13.395 12.651 12.651 5.953-0.744 8.186-2.233 7.442-8.186 0-14.884-0.744-29.023 0-43.907 0.744-10.419-6.698-6.698-11.907-7.442-5.953-0.744-9.674 0.744-8.93 7.442 1.488 7.442 0.744 14.884 0.744 22.326zM484.465 575.256c0-4.465 1.488-9.674-6.698-9.674-22.326 0.744-44.651 0-67.721 0 5.953 20.093 5.953 20.093 23.814 20.093 14.884 0 29.023-0.744 43.907 0 8.93 0.744 5.953-5.209 6.698-10.419zM755.349 565.581c-29.023 0-58.047 0-86.326 0-8.93 0-7.442 4.465-7.442 10.419 0 5.209-1.488 10.419 7.442 10.419 23.814-0.744 47.628 0 71.442 0 8.186-0.744 9.674-2.977 14.884-20.837zM734.512 605.023c-23.814 0-45.395 0-66.233 0-5.209 0-8.186 0.744-9.674 6.698-8.186 21.581-24.558 32.744-47.628 32.744-8.186 0-13.395 2.977-17.86 9.674-14.884 24.558-34.233 45.395-53.581 68.465 82.605-11.163 146.605-49.116 194.977-117.581zM523.907 649.674c0 19.349 0 37.953 0 59.535 19.349-20.837 36.465-40.93 52.093-64.744-17.116 0-32.744 0-47.628 0-5.209 0-4.465 2.233-4.465 5.209zM503.814 595.349c1.488 18.605 12.651 29.767 31.256 30.512 25.302 0.744 50.605 0.744 75.907 0 17.86 0 29.767-13.395 30.512-30.512 0.744-28.279 0.744-28.279-28.279-28.279-13.395 0-26.791 0-40.186 0-20.093 0-40.186 0.744-60.279 0-8.186 0-10.419 2.233-9.674 9.674 1.488 5.209 0.744 11.907 0.744 18.605zM503.814 637.767c0-3.721-2.977-5.209-4.465-7.442-2.977-2.977-6.698-5.953-7.442-9.674-3.721-14.884-13.395-16.372-26.791-15.628-11.907 0.744-23.814 0-37.209 0 20.837 37.953 45.395 71.442 75.907 104.186 0-25.302 0-48.372 0-71.442zM488.186 722.605c-15.628-17.86-29.023-33.488-41.674-49.86-14.14-19.349-26.791-39.442-37.953-60.279-2.233-3.721-3.721-6.698-8.93-6.698-34.977 0-69.953 0-107.163 0 48.372 67.721 112.372 106.419 195.721 116.837zM247.814 474.791c2.977 37.209 11.907 72.186 29.767 105.674 2.233 4.465 5.953 5.209 10.419 5.209 16.372 0 32.744 0 49.86 0 16.372 0 32.744 0 49.86 0 6.698 0 7.442-1.488 5.209-7.442-2.977-9.674-7.442-12.651-17.86-12.651-29.023 0.744-29.023 3.721-29.023-28.279 0-20.093 0-40.93 0-61.023 0-6.698-1.488-8.186-8.186-8.186-27.535 0-54.326 0-81.86 0-5.953-0.744-8.186 0.744-8.186 6.698zM277.581 334.884c-17.116 32.744-26.047 67.721-29.023 104.186-0.744 6.698 1.488 8.186 7.442 8.186 27.535 0 54.326-0.744 81.86 0 6.698 0 8.186-2.233 8.186-8.186-0.744-17.116 0-34.233 0-52.093 0-16.372 0-32.744 0-49.86 0-5.953-0.744-8.93-8.186-8.93-17.116 0.744-33.488 0-50.605 0-4.465 1.488-7.442 2.233-9.674 6.698zM293.953 309.581c17.86 0 33.488 0 49.86 0 3.721 0 6.698 0 8.93-3.721 11.907-20.837 30.512-26.791 52.837-25.302 11.907 0.744 18.605-2.977 24.558-13.395 15.628-26.047 34.977-49.116 55.814-72.186-59.535-0.744-150.326 46.14-192 114.605zM503.814 206.14c-22.326 23.070-40.93 46.14-58.791 73.674 18.605 0 35.721 0 52.093 0 5.209 0 6.698-1.488 6.698-6.698 0-21.581 0-43.163 0-66.977zM399.628 299.907c-21.581 0-33.488 11.907-33.488 33.488 0 37.953 0 75.163 0 116.093 21.581-21.581 46.884-21.581 72.186-21.581 31.256 0 63.256 0 94.512 0 7.442 0 11.163-1.488 10.419-9.674-0.744-30.512-2.977-29.767 30.512-29.767 32.744 0 29.023 1.488 28.279 28.279 0 9.674 2.977 11.907 11.907 11.907 36.465-0.744 72.186 0 108.651 0 25.302 0 35.721 3.721 56.558 20.093 0-29.767 0-58.047 0-87.070-3.721-0.744-5.209 2.977-6.698 4.465-5.953 5.953-11.907 5.953-17.86 0-3.721-4.465-6.698-8.93-14.884-5.953-8.186 3.721-8.93 8.93-8.93 16.372 0 8.186-4.465 12.651-12.651 12.651-11.163 0-22.326 0-33.488 0-9.674 0-13.395-4.465-12.651-13.395 0.744-6.698 0-11.163-7.442-14.14s-11.163-0.744-15.628 4.465c-6.698 8.186-13.395 6.698-20.093-0.744s-14.14-14.14-21.581-21.581c-7.442-7.442-7.442-14.14 0-20.093 5.209-4.465 6.698-8.186 3.721-15.628-2.977-6.698-7.442-7.442-13.395-7.442-66.233-0.744-131.721-0.744-197.953-0.744zM523.163 275.349c0 4.465 2.233 4.465 5.953 4.465 17.116 0 33.488 0 52.837 0-17.116-27.535-36.465-50.605-58.791-74.419 0.744 25.302 0.744 47.628 0 69.953zM607.256 218.047c-15.628-24.558-42.419-17.86-64.744-23.814 13.395 16.372 25.302 32 37.953 48.372 2.233 2.233 3.721 2.977 6.698 0.744s7.442-2.977 11.163-2.233c7.442 1.488 10.419-2.233 13.395-8.93 2.233-7.442-1.488-9.674-4.465-14.14zM791.814 260.465c-8.186 0.744-12.651-3.721-14.884-11.163-1.488-5.209-3.721-11.163-6.698-15.628-4.465-7.442-4.465-14.14 2.233-20.837 2.233-1.488 5.953-3.721 2.977-7.442-3.721-3.721-6.698-8.186-9.674-11.907-2.977 1.488-3.721 1.488-3.721 2.233-17.116 20.093-30.512-2.233-46.14-5.209-4.465-0.744-5.209-7.442-4.465-11.907 0.744-7.442-3.721-8.186-8.93-7.442-5.209 0-11.907-2.233-10.419 7.442 0.744 9.674-4.465 14.14-12.651 16.372-5.209 1.488-10.419 3.721-14.884 5.953-8.186 4.465-14.884 4.465-20.093-2.977-5.209-6.698-8.186-2.233-11.163 1.488s-11.163 5.953-2.977 11.907c7.442 5.953 7.442 13.395 2.977 21.581-2.233 4.465-4.465 9.674-5.953 14.884-2.233 8.186-6.698 12.651-15.628 11.907-4.465 0-8.186 0-7.442 6.698 0.744 5.209-0.744 12.651 7.442 12.651 11.163 0 14.14 6.698 17.116 15.628 1.488 3.721 2.977 8.186 5.209 11.907 4.465 8.186 5.209 15.628-2.233 21.581-8.186 5.953 0 8.93 2.977 11.907 2.977 3.721 5.953 8.186 11.163 1.488 5.953-7.442 12.651-6.698 20.837-2.977 4.465 2.233 9.674 5.209 14.884 5.953 8.93 2.233 13.395 7.442 12.651 16.372-0.744 9.674 5.953 6.698 10.419 7.442 5.209 0 10.419 0.744 8.93-7.442-1.488-8.93 3.721-14.14 12.651-16.372 5.209-1.488 10.419-3.721 14.884-5.953 7.442-4.465 14.884-4.465 20.837 2.977s8.93 0.744 11.907-2.233c2.977-2.977 8.93-5.953 2.233-11.163-8.186-5.953-7.442-13.395-2.977-21.581 2.977-4.465 4.465-9.674 5.953-14.884 2.233-8.186 6.698-12.651 15.628-11.907 9.674 0.744 7.442-5.953 7.442-11.163-1.488-6.698-3.721-8.93-10.419-8.186z" />
<glyph unicode="&#xe90c;" d="M701.023 319.256c-26.791 0-49.116-22.326-49.116-49.116 0-27.535 22.326-49.116 49.116-49.116s49.116 22.326 49.116 49.116c0 27.535-22.326 49.116-49.116 49.116zM701.023 240.372c-15.628 0-29.767 14.14-29.767 29.767s14.14 29.767 29.023 29.767c15.628 0 29.767-14.14 29.767-29.023 0.744-15.628-13.395-30.512-29.023-30.512z" />
<glyph unicode="&#xe90d;" d="M775.442 738.233c-2.977 2.977-8.186 4.465-12.651 5.209-6.698 0-12.651 0-19.349 0 0 0 0 0.744 0 0.744-8.186 0-14.884-3.721-20.093-8.93-19.349-20.093-40.93-37.953-60.279-58.047-39.442-40.186-79.628-79.628-119.814-119.814-11.163-11.163-24.558-20.837-29.767-38.698-11.907 11.163-23.070 22.326-33.488 32.744-40.93 42.419-81.86 84.837-98.977 144.372-8.186 29.767-33.488 46.14-65.488 49.116-0.744 0-1.488 0-2.233 0-5.953-5.209-12.651-0.744-18.605-2.233 0 0 0 0.744 0 0.744-9.674-2.977-7.442-10.419-5.209-17.116 5.209-11.907 12.651-23.070 18.605-34.977 6.698-11.907 5.209-17.116-5.209-23.814-10.419-5.953-16.372-4.465-23.814 7.442-5.953 8.93-11.163 18.605-16.372 27.535-3.721 5.953-6.698 11.907-14.884 11.907-8.186-0.744-11.907-6.698-14.884-12.651-5.953-9.674-5.209-20.837-7.442-31.256 0-2.977 0-5.953 0-8.93 2.977-8.93 0.744-18.605 5.209-26.791 11.163-24.558 29.767-41.674 56.558-48.372 17.116-4.465 31.256-12.651 46.14-21.581 40.186-26.047 74.419-59.535 107.907-93.023 6.698-6.698 7.442-11.163 0-17.86-11.163-10.419-11.163-16.372-1.488-27.535 5.209-5.953 5.953-9.674 0-15.628-67.721-61.767-125.767-135.442-201.674-189.767-6.698-5.209-10.419-11.907-10.419-20.837 0-9.674 0-19.349-2.233-28.279 0-4.465 0-8.93 0-14.14 2.233-2.233 4.465-4.465 6.698-6.698 2.977 0 5.953 0 8.93 0 9.674 1.488 20.093 2.233 29.767 2.233 11.907 0 21.581 4.465 28.279 14.884s12.651 22.326 21.581 31.256c55.070 54.326 107.163 111.628 162.977 165.209 5.953 5.953 10.419 6.698 16.372 0.744 11.163-10.419 17.116-9.674 28.279 0 9.674 8.186 9.674 8.186 19.349-0.744 41.674-38.698 74.419-84.837 105.674-131.721 2.977-5.209 5.209-10.419 6.698-16.372 6.698-36.465 39.442-67.721 82.605-64.744 16.372 0.744 20.093 8.186 12.651 22.326-5.953 11.163-12.651 22.326-19.349 32.744-5.209 9.674-3.721 14.14 6.698 20.837 11.163 6.698 16.372 6.698 22.326-2.977 7.442-11.907 13.395-24.558 21.581-35.721 7.442-9.674 15.628-9.674 22.326 0 6.698 8.93 9.674 20.093 9.674 31.256 0 0-0.744 0-0.744 0 0 7.442 0 14.14 0 21.581 0 0 0.744 0 0.744 0 0 13.395-4.465 26.047-11.907 37.209-13.395 19.349-32 29.767-54.326 34.233-8.93 1.488-16.372 5.209-23.070 9.674-29.767 20.837-60.279 40.93-87.070 65.488-17.116 15.628-33.488 32.744-51.349 50.605 12.651 1.488 19.349 8.186 26.047 14.884 62.512 62.512 124.279 125.023 186.791 186.791 8.186 8.186 14.884 17.116 16.372 28.279 0 5.953 0 12.651 0 18.605-9.674 20.837-27.535 35.721-44.651 50.605zM297.674 204.651c-5.953-8.186-11.163-17.86-17.86-25.302s-17.86-2.977-26.047-5.953c-6.698-1.488-5.953 1.488-6.698 6.698-2.233 24.558 17.116 33.488 33.488 43.163 7.442 4.465 10.419-6.698 15.628-9.674 2.977-2.233 4.465-4.465 1.488-8.93zM293.209 608c-32 6.698-52.093 39.442-43.907 72.186 6.698-6.698 9.674-15.628 14.884-23.070 9.674-16.372 11.907-17.116 30.512-14.14 11.907 1.488 22.326 6.698 30.512 14.884 14.884 14.884 16.372 23.070 5.953 40.93-4.465 7.442-8.93 14.884-13.395 23.070 29.023-2.233 50.605-33.488 46.14-64.744-3.721-33.488-35.721-55.814-70.698-49.116zM334.14 591.628c22.326 9.674 37.209 23.814 46.14 44.651 0.744 0 2.233 0 2.233-0.744 30.512-50.605 73.674-91.535 115.349-133.209 3.721-3.721 11.163-5.209 8.186-13.395-2.977-7.442-9.674-9.674-17.116-10.419-14.14-1.488-26.047 0.744-37.209 12.651-34.977 37.953-71.442 72.93-117.581 100.465zM467.349 378.047c-49.116-49.116-98.233-98.233-147.349-146.605-5.953-5.953-8.186-5.953-14.14 0s-5.209 8.93 0 14.14c52.837 53.581 105.674 107.163 157.767 160.744 17.116-15.628 17.116-15.628 3.721-28.279zM516.465 386.977c-3.721-2.977-5.209 1.488-7.442 3.721-14.884 14.884-29.767 30.512-45.395 44.651-7.442 6.698 0 8.93 2.977 12.651s5.953 7.442 11.907 1.488c14.884-15.628 30.512-30.512 45.395-46.14 1.488-1.488 2.233-2.977 5.209-5.953-4.465-3.721-8.186-7.442-12.651-10.419zM532.837 424.186c-11.907 11.907-23.070 23.070-34.977 35.721 22.326 5.209 27.535 23.814 34.233 40.186 13.395-14.14 27.535-27.535 41.674-41.674-16.372-6.698-34.977-13.395-40.93-34.233zM755.349 289.488c31.256-7.442 50.605-41.674 40.93-72.186-5.209 8.93-11.163 17.116-15.628 26.791-5.209 10.419-12.651 13.395-23.070 12.651-21.581-1.488-37.209-11.907-47.628-29.767-3.721-6.698-4.465-12.651 0-19.349 6.698-9.674 11.907-20.093 17.86-31.256-33.488 5.953-53.581 37.953-45.395 71.442 9.674 33.488 42.419 48.372 72.93 41.674zM715.907 307.349c-24.558-10.419-40.186-26.047-49.86-49.116-2.233 2.977-4.465 5.953-5.953 8.186-9.674 14.14-9.674 14.14 1.488 26.791 4.465 5.209 7.442 10.419 1.488 16.372-5.209 5.209-10.419 2.233-14.884-2.233-2.977-2.977-5.209-6.698-8.93-10.419-3.721 4.465-5.209 7.442-8.186 10.419-4.465 4.465-3.721 8.186 0.744 11.907 5.209 4.465 9.674 10.419 3.721 17.116-6.698 7.442-12.651 2.977-17.86-2.977-3.721-4.465-5.953-2.977-8.93 0.744-16.372 19.349-34.977 36.465-52.093 54.326-8.186 8.186-3.721 36.465 6.698 42.419 3.721 2.233 5.953 2.233 8.93-0.744 5.953-5.953 11.907-11.163 17.116-17.116 37.209-40.93 78.14-75.907 126.512-105.674zM791.070 660.837c-62.512-62.512-125.767-125.023-188.279-187.535-4.465-4.465-6.698-4.465-11.163 0-14.884 15.628-29.767 30.512-45.395 45.395-3.721 3.721-4.465 5.953 0 9.674 64 63.256 127.256 126.512 190.512 189.023 10.419 10.419 20.837 10.419 32 0 8.186-7.442 15.628-15.628 23.814-23.814 4.465-4.465 6.698-8.93 7.442-15.628-0.744-6.698-3.721-11.907-8.93-17.116z" />
<glyph unicode="&#xe90e;" d="M820.837 739.721c0 5.209-0.744 5.953-5.953 5.953-17.116-0.744-34.977 0-52.093 0 0-0.744 0-0.744 0-1.488 6.698 0 12.651-2.977 17.86-6.698 10.419-7.442 20.093-17.116 29.023-26.791 5.953-6.698 10.419-14.14 11.907-23.070-0.744 17.116-1.488 34.977-0.744 52.093z" />
<glyph unicode="&#xe90f;" d="M819.349 221.767c0-0.744 0-1.488 0-1.488 0.744 0 0.744 0 1.488 0 0 6.698 0 14.14 0 20.837-0.744 0-0.744 0-1.488 0 0-0.744 0-1.488 0-2.233 0-5.209 0-11.163 0-17.116z" />
<glyph unicode="&#xe910;" d="M314.047 745.674c-5.953 0-12.651 0-18.605 0 0-0.744 0-0.744 0-1.488 0 0 0.744 0 0.744 0 5.953 0.744 11.907-1.488 17.86 1.488z" />
<glyph unicode="&#xe911;" d="M761.302 744.186c0 0 0 0 0 0 0.744 0 0.744 0.744 0 0 0.744 0.744 1.488 1.488 1.488 1.488-5.953 0-12.651 0-18.605 0 0-0.744 0-0.744 0-1.488 0.744 0 0.744 0 1.488 0 5.209 0 10.419 0 15.628 0z" />
<glyph unicode="&#xe912;" d="M762.791 743.442c0 0 0 0.744 0 0.744s-0.744 0-0.744 0c0 0 0-0.744 0.744-0.744z" />
<glyph unicode="&#xe913;" d="M225.488 157.767c-1.488-5.953 1.488-8.186 6.698-6.698-2.977 0.744-5.209 2.977-6.698 6.698z" />
<glyph unicode="&#xe914;" d="M755.349 693.581c-2.233-1.488-4.465-3.721-5.953-5.209-53.581-53.581-107.163-107.163-160.744-160-2.233-2.233-4.465-4.465-5.953-7.442-2.977-5.953 1.488-12.651 8.186-13.395 5.209 0 8.186 3.721 11.163 6.698 53.581 53.581 106.419 106.419 160 160 1.488 1.488 2.977 2.977 4.465 5.209 2.977 3.721 2.977 8.186 0 11.907-2.233 4.465-6.698 4.465-11.163 2.233z" />
<glyph unicode="&#xe915;" d="M1035.163-64h-1024v1024h1024v-1024zM32-43.163h981.581v982.326h-981.581v-982.326z" />
<glyph unicode="&#xe916;" d="M796.279 648.93c-3.721 0-6.698 0-10.419 0-32 0-64 0-96 0-13.395 0-13.395 1.488-14.884 13.395-2.233 17.86 2.977 30.512 20.837 37.209 5.953 2.233 11.163 5.953 16.372 8.93 8.186 5.209 17.86 8.93 25.302 15.628 8.186 7.442 8.186 13.395-0.744 20.837-3.721 0-7.442 0-11.907 0-23.070-8.93-43.163-23.070-64-34.977-8.93-4.465-13.395-12.651-13.395-23.070 0-9.674 0-19.349 0-29.023 0-6.698-2.977-10.419-9.674-9.674-3.721 0-6.698 0-10.419 0-33.488 0-67.721 0-101.209 0-11.163 0-20.837-3.721-23.814-14.884-5.953-19.349-6.698-39.442 1.488-58.047 3.721-8.93 6.698-17.86 6.698-27.535 0-14.14 0-14.884-13.395-12.651-46.14 5.953-92.279 5.953-138.419-1.488-33.488-5.209-64.744-14.884-93.023-34.233-20.837-14.14-37.953-32-40.186-59.535 0-9.674 0-18.605 0-27.535 2.233-9.674 8.186-16.372 18.605-17.116 7.442 0 8.186-5.209 8.186-11.163 0-6.698-5.209-8.93-9.674-11.907-9.674-5.953-16.372-14.14-16.372-26.047 0-5.209 0-10.419 0-16.372 0-14.14 8.186-22.326 19.349-29.023 6.698-3.721 7.442-7.442-0.744-10.419-11.163-4.465-17.86-12.651-20.093-24.558 0-11.907 0-23.070 0-34.977 2.977-9.674 7.442-17.86 17.86-21.581 7.442-2.233 10.419-7.442 9.674-14.884 0-3.721 0-7.442 0-11.907 0.744-18.605 6.698-27.535 23.814-33.488 164.465 0 328.93 0 493.395 0 18.605 5.953 25.302 14.884 26.791 35.721 0.744 15.628 2.233 30.512 2.233 46.14 0.744 41.674 4.465 82.605 5.209 123.535 0.744 18.605 0.744 37.209 2.233 55.814 2.977 41.674 4.465 83.349 5.953 125.023 0.744 14.884 1.488 29.767 8.186 43.907 0 17.116 0 34.233 0 51.349-4.465 16.372-7.442 18.605-23.814 18.605zM245.581 430.14c1.488 23.070 14.14 38.698 32 50.605 26.047 17.86 56.558 26.791 87.814 31.256 61.023 8.93 121.302 8.186 180.093-10.419 18.605-5.953 36.465-14.14 52.093-26.791 14.14-11.907 22.326-26.047 24.558-44.651 0.744-8.93 0-12.651-10.419-11.907-59.535 0.744-118.326 0-177.86 0s-118.326 0-177.86 0c-9.674-0.744-11.163 2.977-10.419 11.907zM632.558 463.628c-3.721 5.953-1.488 7.442 3.721 9.674 27.535 9.674 52.837 5.209 74.419-14.884 20.093-19.349 26.047-50.605 14.884-75.907-10.419-26.047-36.465-43.163-65.488-42.419-8.93 0.744-18.605 0-21.581 14.14-2.233 10.419-11.163 17.86-20.837 22.326-10.419 4.465-5.209 12.651-5.953 18.605-0.744 6.698 5.953 4.465 9.674 4.465 12.651 1.488 19.349 8.186 20.093 20.837 1.488 14.884 0 29.767-8.93 43.163zM593.116 387.721c0-7.442-1.488-9.674-9.674-9.674-49.86 0-99.721 0-149.581 0s-98.977 0-148.837 0c-8.186 0-10.419 1.488-10.419 10.419 0 8.186 2.233 10.419 10.419 10.419 99.721 0 198.698 0 298.419 0 8.93 0 9.674-3.721 9.674-11.163zM246.326 340.837c0.744 8.93 5.953 14.14 14.14 16.372 5.209 1.488 10.419 1.488 16.372 1.488 52.837 0 105.674 0 157.767 0s104.93 0 157.023 0c3.721 0 6.698 0 10.419 0 11.907-1.488 20.837-10.419 20.093-20.093s-12.651-19.349-23.070-18.605c-8.93 0.744-14.14 6.698-14.884 14.884-1.488 10.419-5.953 14.884-17.116 14.14-13.395-0.744-26.047 0-39.442 0-8.186 0-13.395-2.233-14.14-11.163-1.488-11.163-7.442-17.86-19.349-17.86-10.419-0.744-17.116 5.209-20.093 18.605-1.488 7.442-5.209 10.419-12.651 10.419-17.86 0-36.465 0-54.326 0-8.186 0-11.907-3.721-13.395-11.163-1.488-11.163-8.186-17.86-19.349-17.86s-17.86 6.698-19.349 17.86c-1.488 8.93-6.698 11.907-15.628 11.907-12.651-0.744-25.302-0.744-38.698 0-10.419 0.744-15.628-2.977-17.116-13.395-1.488-11.163-9.674-16.372-19.349-14.884-10.419 0.744-18.605 9.674-17.86 19.349zM592.372 293.953c-0.744-6.698-5.953-3.721-8.93-3.721-49.86 0-99.721 0-150.326 0-49.86 0-98.977 0-148.837 0-2.977 0-8.186-2.977-9.674 2.977s2.233 7.442 7.442 9.674c8.93 2.977 15.628 9.674 17.86 18.605 2.233 6.698 6.698 8.93 12.651 8.186 4.465-0.744 8.186-0.744 12.651 0 5.953 0.744 8.93-0.744 11.163-6.698 6.698-14.884 19.349-23.070 35.721-23.070s29.023 8.186 35.721 23.814c2.233 5.209 5.209 6.698 10.419 6.698 4.465-0.744 9.674 0 14.14 0 11.907 0.744 20.837-0.744 29.023-13.395 16.372-25.302 52.837-21.581 66.233 5.953 2.233 5.209 5.209 8.186 11.163 7.442s11.907 0 17.116 0c4.465 0 7.442-0.744 8.186-5.953 2.977-10.419 10.419-17.116 20.093-20.837 5.953-2.977 9.674-4.465 8.186-9.674zM563.349 170.419c-90.047 0-179.349 0-269.395 0-17.86 0-19.349 1.488-19.349 19.349 0 20.837 0 20.837 20.837 20.837 46.14 0 93.023 0 139.163 0 49.116 0 97.488 0 146.605 0 8.186 0 11.907-1.488 11.907-11.163-0.744-30.512 1.488-29.023-29.767-29.023zM433.86 229.953c-56.558 0-113.86 0-170.419 0-6.698 0-14.884-0.744-16.372 7.442-2.233 9.674-3.721 20.837 2.233 30.512 3.721 5.209 9.674 3.721 14.884 3.721 102.698 0 206.14 0 308.837 0 11.907 0 23.070 0 34.977 0 10.419 0 16.372-4.465 15.628-15.628 0-2.977 0-5.953 0-8.93 0-13.395-2.977-16.372-16.372-16.372-58.047-0.744-116.093-0.744-173.395-0.744zM790.326 550.698c-2.977-59.535-5.953-118.326-8.93-177.86 0 0 0 0 0 0-2.977-63.256-6.698-126.512-9.674-189.023-0.744-9.674-4.465-13.395-14.14-13.395-46.14 0-93.023 0-139.163 0-5.209 0-8.186 1.488-6.698 7.442 0.744 2.977 0.744 5.953 0 8.93-0.744 11.907-2.233 23.814 14.884 27.535 9.674 2.233 13.395 14.14 15.628 24.558 5.209 28.279-1.488 41.674-26.791 51.349-2.977 0.744-3.721 2.233-3.721 4.465 0 2.977 0.744 5.209 3.721 6.698 8.93 2.977 16.372 8.93 20.837 17.86 2.233 4.465 5.953 2.233 8.93 2.233 49.86-7.442 91.535 20.837 104.186 69.209 12.651 49.116-23.814 101.209-74.419 107.907-19.349 2.233-37.209 0-53.581-9.674-3.721-2.233-6.698-2.233-10.419 0.744-19.349 17.116-42.419 26.791-66.977 33.488-6.698 1.488-9.674 5.209-9.674 11.907 0 10.419-3.721 23.814 0.744 30.512s18.605 2.233 29.023 2.233c69.953 0 140.651 0 210.605 0 16.372-0.744 16.372-0.744 15.628-17.116zM799.256 589.395c-5.209-6.698-17.86-2.233-27.535-2.233-36.465 0-73.674 0-110.14 0-43.163 0-85.581 0-128.744 0-7.442 0-10.419 1.488-9.674 9.674 1.488 9.674-4.465 23.070 2.233 29.023 5.209 5.209 18.605 1.488 28.279 1.488 78.884 0 157.767 0 236.651 0 8.93 0 11.907-2.233 11.163-11.163-1.488-8.93 2.233-21.581-2.233-26.791z" />
<glyph unicode="&#xe917;" d="M1035.163-64h-1024v1024h1024v-1024zM32-43.163h981.581v982.326h-981.581v-982.326z" />
<glyph unicode="&#xe918;" d="M801.488 561.86c-88.558 39.442-176.372 78.884-264.93 119.070-9.674 4.465-17.86 4.465-27.535 0-87.814-39.442-176.372-79.628-264.93-119.070-6.698-2.977-14.884-5.209-18.605-12.651 0-109.395 0-218.791 0-328.186 5.209-11.163 15.628-8.186 24.558-8.186 182.326 0 363.907 0 546.233 0 3.721 0 7.442 0 11.907 0 5.953 0 10.419 2.977 12.651 8.186 0 108.651 0 217.302 0 325.953-2.977 9.674-11.907 11.163-19.349 14.884zM750.884 235.163c-151.070 0-302.884 0-453.953 0-8.186 0-11.907 0.744-11.907 10.419s3.721 10.419 11.907 10.419c75.163 0 151.070 0 226.233 0 75.907 0 151.814 0 227.721 0 7.442 0 11.163 0 11.163-9.674-0.744-8.186-2.977-11.163-11.163-11.163zM800.744 247.070c0-10.419-7.442-15.628-17.116-11.163-3.721 1.488-2.977 4.465-2.977 6.698 0 6.698 0 14.14 0 20.837 0 8.186-3.721 11.907-11.907 11.907-15.628 0-32 0.744-47.628 0-8.186-0.744-11.163 2.977-9.674 10.419 0 0.744 0 0.744 0 1.488-1.488 12.651 0.744 19.349 16.372 23.070 36.465 8.186 61.767 43.163 62.512 80.372 0.744 11.907-2.977 15.628-14.884 14.14-24.558-2.233-45.395-11.907-64-33.488 0 17.86 0.744 32.744 0 47.628 0 8.186 5.953 6.698 9.674 7.442 40.186 9.674 67.721 43.163 69.209 82.605 0.744 11.163-3.721 14.884-14.14 14.14-25.302-2.233-46.14-12.651-64.744-32.744 0 14.14 0 25.302 0 36.465 0 7.442-0.744 14.14-9.674 14.14-9.674 0-10.419-7.442-10.419-14.884 0-26.791 0-54.326 0-81.116 0-3.721 0.744-7.442-1.488-11.907-11.907 12.651-26.047 22.326-42.419 27.535-8.186 2.233-15.628 2.977-23.814 3.721-8.186 0-11.163-3.721-11.163-11.163-0.744-39.442 29.767-77.395 69.209-84.837 8.186-1.488 10.419-4.465 10.419-12.651-0.744-23.814-0.744-47.628 0-70.698 0-6.698-1.488-8.93-8.186-8.93-47.628 0-95.256 0-142.884 0-5.953 0-8.186 2.233-7.442 8.186 0 2.233 0 3.721 0 5.953-2.233 12.651 2.233 17.116 15.628 20.837 36.465 8.93 61.767 41.674 63.256 79.628 0.744 13.395-2.233 16.372-16.372 15.628-20.837-1.488-35.721-8.93-62.512-31.256 0 17.116 0 32.744 0 48.372 0 5.953 5.209 4.465 8.186 5.953 36.465 8.93 59.535 31.256 68.465 67.721 6.698 27.535 0.744 33.488-26.791 27.535-16.372-3.721-31.256-11.163-43.163-23.814-1.488-1.488-2.977-4.465-7.442-4.465 0 11.907 0 23.814 0 35.721 0 7.442-2.233 12.651-10.419 11.907-7.442 0-8.93-5.209-8.93-11.907 0-32 0-63.256 0-97.488-13.395 14.14-26.791 23.814-43.163 28.279-10.419 2.977-23.814 8.93-32 0.744-8.93-8.186-2.977-21.581 0-32 10.419-32.744 32-54.326 66.233-61.767 7.442-1.488 9.674-4.465 9.674-11.907-0.744-23.070-0.744-46.14 0-69.953 0-7.442-1.488-11.163-9.674-10.419-47.628-2.233-93.767-2.233-140.651-2.233-7.442 0-11.163 1.488-9.674 9.674 0 2.977 0.744 5.209 0 8.186-1.488 9.674 2.233 13.395 12.651 15.628 37.953 8.186 65.488 43.163 66.977 83.349 0 9.674-4.465 13.395-13.395 12.651-20.837-1.488-39.442-8.93-55.814-23.070-2.977-2.233-4.465-5.953-9.674-7.442 0 15.628 0 30.512 0 45.395 0 5.953 3.721 5.953 8.186 7.442 42.419 10.419 67.721 39.442 70.698 82.605 0.744 11.907-2.233 15.628-14.14 14.884-20.837-1.488-38.698-8.93-54.326-23.070-2.977-2.233-4.465-5.953-9.674-7.442 0 10.419 0 20.837 0 31.256 0 7.442 0.744 16.372-9.674 16.372s-9.674-8.186-9.674-16.372c0-30.512 0-61.023 0-93.767-13.395 14.14-26.791 23.814-43.163 28.279-3.721 1.488-8.186 2.233-12.651 2.977-22.326 2.977-26.047-0.744-22.326-22.326 5.209-35.721 33.488-65.488 69.209-72.93 6.698-1.488 9.674-2.977 9.674-11.163-0.744-23.814-0.744-48.372 0-72.186 0-8.186-2.977-9.674-9.674-9.674-14.884 0.744-30.512 0-45.395 0-10.419 0-15.628-3.721-14.884-14.14 0-4.465-0.744-9.674 0-14.14 1.488-10.419-2.977-12.651-11.907-11.907-5.953 0.744-8.186 2.233-7.442 8.186 0 8.186 0 17.116 0 25.302 0 85.581 0 171.163 0 256.744 0 8.93 2.977 12.651 10.419 16.372 85.581 37.953 171.163 75.907 256.744 114.605 7.442 2.977 13.395 3.721 20.837 0 85.581-38.698 171.907-76.651 258.233-115.349 6.698-2.977 9.674-6.698 9.674-14.884-2.977-91.535-2.977-184.558-2.977-278.326zM714.419 327.442c-0.744 24.558 22.326 48.372 54.326 55.814-4.465-29.767-25.302-50.605-54.326-55.814zM715.163 455.442c8.93 26.047 27.535 40.93 55.070 47.628-6.698-28.279-22.326-46.14-47.628-55.070-2.233-0.744-5.953-2.233-7.442-0.744-2.977 1.488-1.488 5.209 0 8.186zM689.86 386.977c-24.558 1.488-49.86 24.558-55.070 48.372-1.488 6.698 0.744 6.698 6.698 5.953 23.814-5.953 43.907-28.279 48.372-54.326zM535.070 326.698c2.233 27.535 23.070 49.116 53.581 56.558 2.977-23.070-21.581-49.116-53.581-56.558zM535.070 446.512c5.209 29.767 25.302 49.86 55.070 55.070-1.488-26.047-26.791-52.093-55.070-55.070zM504.558 386.977c-24.558 5.209-46.14 29.023-48.372 55.814 28.279-6.698 46.14-23.070 54.326-49.86 1.488-5.953 0.744-7.442-5.953-5.953zM355.721 326.698c5.209 30.512 26.047 50.605 55.070 55.814 0-25.302-23.814-49.86-55.070-55.814zM355.721 446.512c6.698 30.512 26.047 50.605 55.070 55.070-0.744-26.047-26.047-52.093-55.070-55.070zM331.907 386.977c-27.535 2.977-47.628 23.070-55.070 55.070 28.279-2.977 53.581-28.279 55.070-55.070z" />
<glyph unicode="&#xe919;" d="M1035.163-64h-1024v1024h1024v-1024zM32-43.163h981.581v982.326h-981.581v-982.326z" />
<glyph unicode="&#xe91a;" d="M800.744 512c-21.581 0.744-42.419 0-64 0-4.465 0-10.419-0.744-11.907 4.465-4.465 11.907-11.163 21.581-27.535 25.302 7.442 2.977 11.163 2.977 15.628 2.977 23.814 0 47.628 0 70.698 0 21.581 0 30.512 8.186 30.512 29.767 0.744 49.116 0 97.488 0 146.605 0 15.628-2.977 19.349-17.116 24.558-90.047 0-180.093 0-269.395 0-13.395-3.721-17.116-13.395-17.116-25.302-0.744-17.86 0-35.721 0-53.581 0-17.116 0-17.86-17.116-17.86-36.465 0-72.93 0.744-109.395 0-33.488-0.744-61.023-28.279-61.767-61.767-0.744-20.093 2.977-39.442 5.209-58.791 1.488-16.372 1.488-16.372-14.884-16.372-23.070 0-45.395 0-68.465 0-7.442 0-15.628-0.744-18.605-10.419 0-16.372 0-32.744 0-49.116 1.488-2.233 2.233-5.209 4.465-5.209 14.884-2.977 12.651-14.884 12.651-25.302 0-55.070 0-109.395 0-164.465 0-29.023 0-58.791 0-87.814 0-7.442 0-14.884 8.186-18.605 16.372 0 32.744 0 49.116 0 9.674 4.465 8.186 13.395 8.186 21.581 0 84.093 0 168.93 0 253.023 0 3.721 0 7.442 0 11.907s2.977 6.698 7.442 7.442c14.884 2.977 21.581 0 29.023-13.395 11.907-22.326 30.512-34.233 55.814-34.977 8.93 0 18.605 0 27.535 0 4.465 0 11.163 0.744 11.163-6.698s-5.953-6.698-11.163-6.698c-11.907 0-23.070 0-34.977 0-23.814-0.744-42.419-14.14-49.86-36.465-6.698-20.093-1.488-28.279 20.093-28.279 20.837 0 40.93 0 61.767 0 13.395 0 14.14-1.488 14.884-14.884 0-8.93 0-18.605 0-27.535 0-5.953-2.233-10.419-7.442-12.651-15.628-6.698-22.326-19.349-22.326-36.465 0-7.442-3.721-10.419-11.163-10.419s-14.884 0.744-22.326-0.744c-8.186-0.744-13.395-4.465-15.628-13.395-5.953-28.279-0.744-37.953 25.302-49.116 0.744-0.744 2.233-0.744 2.977-1.488 2.977 0 5.953 0 8.93 0 5.953 5.209 13.395 5.953 20.837 5.953 20.093 0 40.93 0 61.023 0 9.674 0 19.349-0.744 27.535-5.953 2.977 0 5.953 0 8.93 0 3.721 2.233 8.186 4.465 12.651 5.953 11.163 2.977 15.628 10.419 16.372 21.581 0 4.465 0 9.674 0 14.14-1.488 16.372-7.442 22.326-23.070 23.070-4.465 0-9.674 0.744-14.14 0-9.674-0.744-14.14 2.977-14.14 13.395 0.744 12.651-3.721 24.558-14.884 29.023-14.14 5.953-16.372 15.628-14.884 29.023 0.744 5.209 0 11.163 0 16.372 0 13.395 1.488 14.884 14.884 14.884 21.581 0 42.419 0 64 0 18.605 0 23.814 8.186 19.349 26.047-5.953 22.326-25.302 37.953-48.372 38.698-13.395 0.744-26.047 0-39.442 0-4.465 0-8.93 0-9.674 5.953 0 6.698 4.465 7.442 9.674 7.442 11.163 0.744 22.326 0 33.488 0 17.86 0.744 32.744 7.442 45.395 20.837 5.209 5.953 9.674 13.395 12.651 20.837s12.651 8.186 23.814 6.698c8.186-1.488 6.698-8.186 6.698-14.14 0-34.233 0-69.209 0-103.442 0-51.349 0-103.442 0-154.791 0-8.186-0.744-16.372 8.186-21.581 62.512 0 125.767 0 188.279 0 9.674 4.465 8.186 14.14 8.186 22.326 0 84.837 0 168.93 0 253.767 0 8.93-0.744 17.116 11.163 19.349 2.977 0.744 4.465 3.721 5.953 6.698 0 16.372 0 32.744 0 49.116-0.744 8.186-9.674 8.93-17.86 8.93zM285.023 180.093c0-8.93-3.721-9.674-11.163-9.674s-9.674 1.488-9.674 9.674c0.744 43.163 0 87.070 0 130.233s0 85.581 0 128.744c0 7.442 1.488 10.419 8.93 9.674 6.698-0.744 11.163 0.744 11.163-9.674 0.744-86.326 0.744-172.651 0.744-258.977zM328.93 468.093c-12.651 0-24.558 0-37.209 0s-25.302 0.744-37.953 0c-8.186-0.744-8.186 3.721-8.186 9.674 0 5.209-1.488 10.419 7.442 10.419 25.302-0.744 50.605-0.744 75.163 0 12.651 0 8.186-8.93 8.93-14.884 1.488-8.186-5.209-5.209-8.186-5.209zM701.767 512c0-5.209-3.721-4.465-6.698-4.465-11.163 0-21.581 0-32.744 0s-22.326 0-33.488 0c-2.977 0-6.698 0-5.953 4.465 0 3.721 2.233 5.209 5.953 5.209 22.326 0 44.651 0 66.977 0 4.465 0.744 5.953-1.488 5.953-5.209zM602.047 512.744c-0.744-5.209-0.744-5.209-14.884-5.209-10.419-2.977-11.907 2.977-10.419 13.395 4.465 26.791 3.721 26.791 31.256 26.791 5.953 0 12.651 0 18.605 0 2.977 0 5.209-0.744 5.209-4.465s-0.744-5.953-4.465-5.953c-15.628 0-23.814-8.93-25.302-24.558zM651.907 541.767c0 8.186 5.953 5.953 9.674 5.209 3.721 0 9.674 3.721 10.419-5.209 0-8.186-5.953-4.465-9.674-5.953-3.721 2.233-10.419-1.488-10.419 5.953zM778.419 567.070c-61.023 0-121.302 0-182.326 0-3.721 0-7.442 0-11.907 0 2.233 20.093 2.233 20.093 21.581 20.093 58.047 0 115.349 0 173.395 0 7.442 0 12.651 0 12.651-10.419 0-11.907-6.698-9.674-13.395-9.674zM437.581 338.605c-23.070 0.744-46.14 0-70.698 0 5.209 14.14 15.628 19.349 27.535 20.093 14.14 0.744 28.279 0 43.163 0 9.674 0 5.953-6.698 6.698-11.163 0-4.465 0.744-8.93-6.698-8.93zM514.977 189.767c2.977 0 8.186 2.233 8.186-4.465s-4.465-4.465-8.186-4.465c-20.837 0-41.674 0-62.512 0-20.093 0-40.186 0-60.279 0-2.977 0-8.186-2.233-8.186 4.465s4.465 4.465 8.186 4.465c40.93 0 81.86 0 122.791 0zM473.302 215.814c0.744-8.93-6.698-5.209-11.163-5.953-2.977-0.744-5.953 0-8.93 0-1.488 0-2.233 0-3.721 0-15.628 0-20.837 6.698-15.628 22.326 1.488 3.721 3.721 6.698 7.442 6.698 7.442 0 15.628 1.488 23.070 0 14.14-2.977 8.186-14.884 8.93-23.070zM471.070 358.698c13.395-0.744 26.791 0 40.93 0 13.395-0.744 23.814-5.209 29.767-20.093-24.558 0-47.628 0.744-69.953 0-8.93 0-8.186 4.465-8.186 10.419 0 5.209-0.744 10.419 7.442 9.674zM564.837 576.744c-5.209-39.442-10.419-78.884-15.628-118.326-3.721-25.302-19.349-39.442-44.651-40.186-33.488 0-66.233 0-99.721 0-24.558 0-40.93 15.628-44.651 40.186-5.209 39.442-10.419 78.884-15.628 118.326-3.721 29.023 14.14 49.86 43.907 49.86 22.326 0.744 43.907 0 66.233 0s43.907 0 66.233 0c29.767-0.744 46.884-20.837 43.907-49.86zM540.279 643.721c-5.953 1.488-8.186 3.721-8.186 10.419 0.744 20.837 0.744 41.674 0 62.512 0 8.186 2.977 9.674 9.674 9.674 40.186 0 79.628 0 119.814 0 39.442 0 78.884 0 118.326 0 8.186 0 10.419-2.233 10.419-10.419-0.744-32.744-0.744-64.744 0-97.488 0-7.442-1.488-10.419-9.674-10.419-64 0.744-128 0-192 0-5.953 0-9.674 1.488-12.651 7.442-6.698 14.14-19.349 23.814-35.721 28.279zM781.395 178.605c0-6.698-2.233-8.186-8.93-8.186-46.884 0-94.512 0-141.395 0-5.953 0-8.93 1.488-8.93 8.186 0.744 20.837 0.744 41.674 0 62.512 0 7.442 2.233 8.93 9.674 8.93 23.814-0.744 46.884 0 70.698 0 23.070 0 46.14 0 69.953 0 6.698 0 9.674-1.488 8.93-8.93-0.744-20.837-0.744-41.674 0-62.512zM781.395 377.302c0-6.698-1.488-8.186-8.186-8.186-47.628 0-95.256 0-142.884 0-5.953 0-7.442 2.233-7.442 8.186 0 21.581 0 42.419 0 64 0 5.953 1.488 8.186 7.442 7.442 23.814 0 47.628 0 70.698 0 23.814 0 48.372 0 72.186 0 6.698 0 8.186-2.233 8.186-8.186-0.744-21.581-0.744-42.419 0-63.256zM622.14 340.837c0 5.953 1.488 8.186 7.442 7.442 23.814 0 46.884 0 70.698 0s48.372 0 72.186 0c6.698 0 8.186-2.233 8.186-8.186-0.744-20.837-0.744-41.674 0-62.512 0-6.698-1.488-8.186-8.186-8.186-46.884 0-94.512 0-141.395 0-7.442 0-8.93 2.233-8.93 8.93 0.744 20.837 0.744 41.674 0 62.512zM792.558 468.093c-35.721 0.744-72.186 0-107.907 0-34.233 0-69.209 0-103.442 0-3.721 0-10.419-3.721-9.674 5.209 0.744 5.953-2.233 14.14 9.674 14.14 70.698 0 141.395 0 211.349 0 8.93 0 8.186-4.465 8.186-9.674s0.744-10.419-8.186-9.674z" />
<glyph unicode="&#xe91b;" d="M620.651 691.349c2.977 3.721 1.488 8.186-1.488 11.163-3.721 3.721-8.93 4.465-12.651 0.744-14.14-13.395-27.535-27.535-40.93-40.93-2.977-2.977-3.721-6.698-0.744-10.419 2.233-2.977 5.209-4.465 8.93-5.209 1.488 0.744 2.977 0.744 3.721 1.488 14.14 14.14 29.023 28.279 43.163 43.163z" />
<glyph unicode="&#xe91c;" d="M582.698 706.233c0 4.465-2.233 7.442-5.209 8.93-3.721 1.488-7.442 1.488-10.419-1.488-6.698-6.698-13.395-12.651-19.349-19.349-4.465-4.465-4.465-9.674 0-14.14 5.209-4.465 9.674-2.977 14.14 0.744 5.953 5.953 11.907 11.907 17.86 17.86 1.488 1.488 2.233 4.465 2.977 7.442z" />
<glyph unicode="&#xe91d;" d="M711.442 418.233c-2.977 0-5.953 0-8.93 0 0 0 0 0 0 0-2.977 0-5.953 0-8.93 0-6.698 0-11.163-2.977-11.163-10.419 0-6.698 4.465-9.674 10.419-9.674s12.651 0 18.605 0c6.698 0 9.674 3.721 9.674 10.419 0 5.953-3.721 8.93-9.674 9.674z" />
<glyph unicode="&#xe91e;" d="M701.023 299.163c1.488 0 2.977 0 3.721 0 7.442 0 15.628-1.488 16.372 9.674 0 11.163-8.186 9.674-15.628 10.419-1.488 0-2.233 0-3.721 0-8.186-0.744-19.349 2.977-19.349-9.674-0.744-12.651 11.163-9.674 18.605-10.419z" />
<glyph unicode="&#xe91f;" d="M709.209 220.279c-5.209 0-9.674 0-14.884 0-7.442 0-12.651-2.977-11.907-10.419 0-7.442 5.209-9.674 11.907-9.674 2.233 0 4.465 0 6.698 0 2.977 0 5.209 0 8.186 0 6.698 0 12.651 2.233 11.907 10.419 0 7.442-5.209 9.674-11.907 9.674z" />
<glyph unicode="&#xe920;" d="M1035.163-64h-1024v1024h1024v-1024zM32-43.163h981.581v982.326h-981.581v-982.326z" />
<glyph unicode="&#xe921;" d="M820.837 636.279c-5.209 4.465-11.163 2.977-16.372 2.977-43.163 0-87.070 0-130.233 0-8.93 0-13.395 2.977-17.116 11.907-10.419 29.767-28.279 54.326-54.326 72.186-20.093 13.395-41.674 20.837-66.233 22.326-8.93 0-18.605 0-27.535 0-5.209-2.977-11.163-0.744-17.116-1.488-52.093-10.419-84.093-43.163-102.698-91.535-3.721-9.674-8.186-13.395-18.605-13.395-43.163 0.744-85.581 0-128.744 0-5.953 0-11.907 0.744-16.372-2.977 0-158.512 0-317.767 0-476.279 0-8.186 1.488-9.674 9.674-9.674 192 0 384 0 576 0 8.186 0 9.674 1.488 9.674 9.674 0 158.512 0 317.767 0 476.279zM410.047 643.721c15.628 43.907 46.884 72.186 92.279 80.372 43.163 7.442 81.116-6.698 110.14-40.186 11.907-13.395 20.093-28.279 24.558-46.884-74.419 0-148.093 0-221.767 0-5.209-0.744-7.442 0-5.209 6.698zM245.581 599.070c0 17.116 0 17.116 17.116 17.116 87.070 0 174.14 0 261.209 0 88.558 0 176.372 0 264.93 0 9.674 0 12.651-2.233 11.907-11.907-0.744-28.279-0.744-57.302 0-86.326 0-9.674-2.977-11.907-11.907-11.163-13.395 0.744-26.791 0.744-40.93 0-5.209 0-8.186 1.488-7.442 6.698 0 0.744 0 1.488 0 2.233-0.744 9.674 4.465 23.070-2.233 29.023-6.698 5.209-19.349 1.488-29.023 1.488-19.349 0-38.698-0.744-58.047 0-8.186 0-11.163-2.977-9.674-10.419 0-0.744 0-0.744 0-1.488-0.744-8.93 4.465-21.581-2.233-26.791-5.953-4.465-17.86-1.488-26.791-1.488-66.233 0-132.465 0-198.698 0-8.186 0-10.419 2.233-10.419 10.419 0 9.674 4.465 21.581-1.488 27.535s-18.605 1.488-28.279 1.488c-20.093 0-40.186 0-60.279 0-6.698 0-9.674-1.488-9.674-8.93 0-9.674 4.465-23.070-1.488-29.023-6.698-5.953-20.093-1.488-29.767-1.488-27.535 0-27.535 0-27.535 27.535 0.744 23.070 0.744 44.651 0.744 65.488zM713.674 468.093c-7.442 0.744-14.884 0-22.326 0-5.953 0-11.907 0.744-17.116 0-11.163-1.488-13.395 2.977-12.651 12.651 0.744 5.209 1.488 7.442 7.442 7.442 14.884-0.744 30.512-0.744 45.395 0 8.93 0.744 6.698-5.209 6.698-9.674 0-5.209 1.488-11.907-7.442-10.419zM712.93 507.535c-7.442 0.744-14.884 0-22.326 0-5.953 0-11.907 0.744-17.116 0-9.674-1.488-12.651 2.233-11.907 11.907 0.744 5.953 1.488 8.186 7.442 7.442 14.884-0.744 29.767-0.744 43.907 0 8.93 0.744 7.442-5.209 7.442-10.419 1.488-5.209 0.744-9.674-7.442-8.93zM378.047 468.093c-8.186 0-16.372 0-24.558 0-5.209 0-11.163 0.744-16.372 0-11.907-2.233-13.395 3.721-12.651 13.395 0 5.209 2.233 6.698 6.698 5.953 15.628 0 31.256-0.744 46.14 0 8.186 0 5.953-5.209 5.953-8.93 0.744-3.721 3.721-11.163-5.209-10.419zM384 513.488c-0.744-4.465-1.488-5.953-5.953-5.953-15.628 0-32 0-47.628 0-8.93 0-5.209 6.698-5.953 11.163s-1.488 9.674 5.953 8.93c7.442-0.744 15.628 0 23.070 0 5.953 0 11.907-0.744 17.116 0 13.395 2.233 14.14-4.465 13.395-14.14zM800.744 183.070c0-10.419-2.977-12.651-12.651-12.651-88.558 0.744-176.372 0-264.93 0s-176.372 0-264.93 0c-9.674 0-13.395 1.488-12.651 12.651 0 97.488 0 195.721 0 293.953 0 8.93 2.233 11.907 11.163 11.163 13.395-0.744 26.791-0.744 40.93 0 6.698 0 8.186-2.233 7.442-8.186-0.744-8.186 0-16.372 0-24.558-0.744-6.698 2.233-7.442 8.186-7.442 27.535 0 55.814 0 83.349 0 6.698 0 8.186 2.233 8.186 8.186 0 9.674-3.721 23.814 1.488 29.023 5.953 6.698 19.349 2.233 29.767 2.233 64.744 0 129.488 0 194.233 0 8.93 0 12.651-1.488 11.907-11.907-0.744-8.93-4.465-21.581 1.488-26.791 5.209-4.465 17.116-1.488 26.047-1.488 20.837 0 41.674 0 62.512 0 6.698 0 9.674 0.744 8.93 8.93-0.744 9.674-3.721 23.814 1.488 29.023 5.953 6.698 19.349 1.488 29.767 2.233 8.93 0 20.093 2.977 26.047-1.488 5.209-4.465 1.488-16.372 1.488-25.302 0.744-93.023 0.744-185.302 0.744-277.581z" />
<glyph unicode="&#xe922;" d="M642.233 369.86c0 5.953-1.488 9.674-8.186 8.186-2.233 0-3.721 0-5.953 0-17.86 0.744-36.465-1.488-54.326 0.744-2.977 17.86-0.744 36.465-1.488 54.326 0 2.233 0 4.465 0 6.698 0.744 5.953-1.488 8.186-7.442 7.442-13.395-0.744-26.791 0-40.93 0s-28.279 0-43.163 0c-5.953 0-8.186-1.488-7.442-7.442 0.744-16.372-0.744-33.488 0-49.86 0.744-9.674-1.488-12.651-11.907-12.651-16.372 0.744-33.488 0-49.86 0-5.209 0-8.186-0.744-8.186-7.442 0.744-27.535 0.744-55.814 0-83.349 0-6.698 2.233-8.93 8.93-8.186 2.233 0 4.465 0 6.698 0 17.86-0.744 35.721 1.488 52.837-1.488 2.233-17.86 0.744-35.721 0.744-52.837 0-2.233 0-4.465 0-6.698-0.744-5.953 1.488-8.186 7.442-8.186 27.535 0 55.814 0 83.349 0 5.953 0 8.186 1.488 7.442 8.186-0.744 16.372 0 33.488 0 49.86 0 8.93 1.488 12.651 11.163 11.907 16.372-0.744 33.488 0 49.86-0.744 6.698 0 8.93 1.488 8.186 8.186 1.488 29.023 1.488 56.558 2.233 83.349zM622.884 307.349c0-6.698-2.233-8.186-8.93-8.186-17.116 0-34.977 0-52.093 0-7.442 0-8.93-2.233-8.93-8.93 0.744-17.116 0-34.977 0-52.093 0-6.698-1.488-8.93-8.186-8.93-14.884 0.744-29.767 0.744-43.907 0-5.953 0-8.186 1.488-7.442 8.186 0.744 8.93 0 18.605 0 29.767-0.744 8.93 4.465 23.814-2.233 30.512-5.953 5.209-20.837 1.488-31.256 1.488-11.907 0-26.791-3.721-33.488 2.233-7.442 6.698-2.233 22.326-2.233 34.233 0 23.070 0 23.070 23.814 23.070 12.651 0 24.558 0.744 37.209 0 7.442-0.744 8.93 2.233 8.93 8.93-0.744 17.116 0 34.233 0 51.349 0 6.698 1.488 9.674 8.93 9.674 14.14-0.744 28.279-0.744 43.163 0 6.698 0 8.93-2.233 8.186-8.93-0.744-17.116 0-34.233 0-51.349 0-8.186 2.233-10.419 10.419-9.674 16.372 0.744 33.488 0 49.86 0 6.698 0 9.674-1.488 9.674-8.93-2.233-13.395-2.233-28.279-1.488-42.419z" />
<glyph unicode="&#xe923;" d="M1035.163-64h-1024v1024h1024v-1024zM32-43.163h981.581v982.326h-981.581v-982.326z" />
<glyph unicode="&#xe924;" d="M816.372 514.977c-8.186 35.721-22.326 69.209-43.163 99.721-34.977 51.349-81.116 89.302-139.163 113.116-26.791 11.163-54.326 16.372-83.349 18.605-2.977 0-5.953 0-9.674 0-1.488-2.977-2.977-2.233-4.465 0-8.93 0-18.605 0-27.535 0-1.488-2.233-2.977-2.977-4.465 0-3.721 0-7.442 0-11.907 0-11.907-3.721-24.558-1.488-36.465-4.465-59.535-14.14-110.14-43.163-152.558-87.814-26.047-27.535-46.14-58.791-60.279-94.512-10.419-25.302-15.628-51.349-18.605-78.14 0-4.465 0-8.93 0-14.14 2.977-1.488 2.233-2.977 0-4.465 0-9.674 0-18.605 0-27.535 2.233-1.488 2.977-2.977 0-4.465 0-4.465 0-9.674 0-14.14 3.721-11.163 2.233-23.070 4.465-34.233 8.186-34.977 22.326-68.465 42.419-98.233 34.977-52.093 81.116-90.047 139.907-113.86 25.302-10.419 51.349-15.628 78.14-18.605 4.465 0 8.93 0 14.14 0 1.488 2.977 2.977 2.233 4.465 0 9.674 0 18.605 0 27.535 0 1.488 2.233 2.977 2.977 4.465 0 2.977 0 5.953 0 9.674 0 12.651 2.977 26.047 1.488 38.698 4.465 59.535 14.14 110.14 43.163 152.558 87.814 26.047 27.535 46.14 58.791 60.279 94.512 10.419 25.302 15.628 51.349 18.605 78.14 0 4.465 0 9.674 0 14.14-2.977 1.488-2.233 2.977 0 4.465 0 8.93 0 18.605 0 27.535-2.233 1.488-2.977 2.977 0 4.465 0 3.721 0 7.442 0 11.907-2.977 11.163-0.744 23.070-3.721 35.721zM523.163 170.419c-153.302 0.744-276.837 123.535-277.581 276.837-1.488 151.814 124.279 277.581 277.581 278.326 152.558 0.744 277.581-125.023 277.581-277.581s-125.767-278.326-277.581-277.581z" />
<glyph unicode="&#xe925;" d="M509.023 745.674c-1.488 0-2.977 0-4.465 0 1.488-1.488 2.977-1.488 4.465 0z" />
<glyph unicode="&#xe926;" d="M541.767 745.674c-1.488 0-2.977 0-4.465 0 1.488-1.488 2.977-1.488 4.465 0z" />
<glyph unicode="&#xe927;" d="M225.488 466.605c0-1.488 0-2.977 0-4.465 1.488 1.488 1.488 2.977 0 4.465z" />
<glyph unicode="&#xe928;" d="M820.837 462.14c0 1.488 0 2.977 0 4.465-1.488-1.488-1.488-2.977 0-4.465z" />
<glyph unicode="&#xe929;" d="M225.488 433.86c0-1.488 0-2.977 0-4.465 1.488 1.488 1.488 2.977 0 4.465z" />
<glyph unicode="&#xe92a;" d="M820.837 429.395c0 1.488 0 2.977 0 4.465-1.488-1.488-1.488-2.977 0-4.465z" />
<glyph unicode="&#xe92b;" d="M504.558 150.326c1.488 0 2.977 0 4.465 0-1.488 1.488-2.977 1.488-4.465 0z" />
<glyph unicode="&#xe92c;" d="M537.302 150.326c1.488 0 2.977 0 4.465 0-1.488 1.488-2.977 1.488-4.465 0z" />
<glyph unicode="&#xe92d;" d="M522.419 686.14c-131.721-0.744-238.14-107.907-237.395-238.14 0.744-131.721 107.907-238.14 238.14-237.395 131.721 0.744 238.14 107.907 237.395 238.14 0 130.977-107.163 238.14-238.14 237.395zM532.837 601.302c0 18.605 0 37.209 0 55.814 0 5.953 0.744 8.93 8.186 8.186 24.558-2.233 47.628-8.186 70.698-17.86 5.953-2.233 5.953-4.465 2.977-9.674-19.349-33.488-38.698-66.977-58.047-100.465-5.209-9.674-11.163-0.744-17.116-1.488-5.209-0.744-7.442 2.233-7.442 7.442 0.744 19.349 0.744 38.698 0.744 58.047zM436.093 648.186c22.326 8.93 45.395 14.884 69.209 17.116 7.442 0.744 8.186-2.233 8.186-8.186 0-19.349 0-37.953 0-57.302 0-18.605 0-37.209 0-55.814 0-5.209-0.744-9.674-6.698-8.93-5.953 0-12.651-8.186-18.605 2.977-17.86 32.744-37.209 65.488-55.814 97.488-3.721 6.698-3.721 9.674 3.721 12.651zM344.558 573.023c16.372 23.070 36.465 42.419 59.535 58.047 5.209 3.721 7.442 2.977 10.419-2.233 18.605-32.744 37.953-65.488 56.558-98.233 0.744-1.488 2.233-2.977 2.977-5.209s-1.488-2.977-2.977-4.465c-2.977-2.977-7.442-4.465-9.674-8.186-7.442-11.907-14.14-9.674-25.302-3.721-29.023 17.86-59.535 34.977-89.302 51.349-6.698 3.721-6.698 6.698-2.233 12.651zM305.86 465.86c2.233 26.047 8.93 50.605 20.093 74.419 2.233 5.953 4.465 7.442 10.419 3.721 32.744-19.349 65.488-37.953 98.233-56.558 5.209-2.977 6.698-5.953 4.465-11.163-1.488-3.721-2.977-7.442-2.977-11.163-0.744-5.953-3.721-7.442-8.93-7.442-18.605 0-37.953 0-56.558 0s-37.953 0-56.558 0c-7.442 0-8.93 1.488-8.186 8.186zM325.209 356.465c-10.419 23.814-17.116 48.372-19.349 74.419-0.744 7.442 2.233 7.442 7.442 7.442 18.605 0 37.953 0 56.558 0 17.86 0 36.465 0 54.326 0 6.698 0 10.419-0.744 11.163-8.93 2.977-17.116 3.721-17.116-11.163-26.047-29.023-17.116-58.791-33.488-87.814-51.349-5.209-2.977-8.186-2.977-11.163 4.465zM339.349 331.163c23.070 13.395 46.14 26.791 69.209 40.186 8.186 4.465 16.372 9.674 25.302 14.14 17.116 9.674 23.814 8.186 34.977-7.442 2.233-2.977 0.744-5.209-0.744-7.442-20.093-35.721-40.93-70.698-61.023-106.419-28.279 17.86-49.86 39.442-67.721 66.977zM506.791 230.698c-26.791 2.233-52.093 8.93-76.651 20.093-6.698 2.977-5.953 5.953-2.977 11.163 18.605 32 37.953 64.744 55.814 97.488 2.977 5.209 5.953 6.698 11.907 4.465 17.86-5.953 17.86-5.209 17.86-24.558 0-14.884 0-29.023 0-43.907 0-18.605 0-37.953 0-56.558 0.744-5.953 0.744-8.93-5.953-8.186zM523.163 378.791c-37.953 0-69.209 31.256-69.953 69.209 0 37.953 31.256 69.209 69.209 69.953 37.953 0 69.209-31.256 69.953-69.209 0.744-38.698-31.256-69.953-69.209-69.953zM616.93 251.535c-25.302-11.907-51.349-18.605-78.884-20.837-6.698-0.744-5.209 3.721-5.209 7.442 0 18.605 0 37.953 0 56.558s0 37.209 0 55.814c0 6.698 0.744 10.419 8.186 10.419 3.721 0 7.442 1.488 11.163 2.977 4.465 1.488 6.698 0.744 9.674-3.721 19.349-33.488 38.698-67.721 58.047-101.209 2.233-3.721 1.488-5.953-2.977-7.442zM644.465 267.163c-3.721-2.977-5.209-2.233-7.442 1.488-19.349 33.488-38.698 67.721-58.047 101.209-2.233 4.465-1.488 6.698 1.488 9.674 15.628 14.884 15.628 14.884 34.977 3.721 30.512-17.86 61.023-34.977 91.535-52.837-16.372-25.302-37.953-46.14-62.512-63.256zM740.465 430.884c-1.488-26.791-8.93-52.093-20.093-76.651-2.233-5.953-4.465-5.953-9.674-2.977-32.744 19.349-65.488 37.953-98.233 56.558-5.209 2.977-6.698 5.953-4.465 11.907 5.953 17.86 5.209 17.86 25.302 17.86 33.488 0 66.233 0 99.721 0 3.721 0.744 9.674 2.233 7.442-6.698zM721.86 538.047c10.419-23.814 16.372-47.628 19.349-73.674 0.744-5.953-1.488-7.442-6.698-7.442-19.349 0-38.698 0-58.047 0-17.86 0-36.465 0-54.326 0-6.698 0-9.674 1.488-11.163 8.93-3.721 17.86-3.721 17.116 11.907 26.791 29.023 16.372 57.302 32.744 86.326 49.86 6.698 5.209 8.93 3.721 12.651-4.465zM601.302 503.814c-2.233-1.488-5.209-4.465-8.186-0.744-5.209 6.698-11.163 12.651-18.605 17.116-3.721 2.977-1.488 5.209 0 7.442 19.349 33.488 38.698 66.977 58.047 100.465 2.233 3.721 3.721 5.209 8.186 2.233 26.047-17.86 48.372-39.442 66.233-66.233-35.721-19.349-70.698-39.442-105.674-60.279z" />
<glyph unicode="&#xe92e;" d="M523.163 487.442c-21.581 0-40.186-17.86-40.186-39.442s17.86-39.442 39.442-39.442c21.581 0 39.442 17.86 39.442 40.186 0.744 21.581-17.116 38.698-38.698 38.698zM522.419 428.651c-10.419 0-18.605 8.93-18.605 19.349 0 11.163 8.93 20.093 20.093 19.349 10.419 0 18.605-8.93 18.605-19.349 0-11.163-8.93-19.349-20.093-19.349z" />
<glyph unicode="&#xe92f;" d="M1035.163-64h-1024v1024h1024v-1024zM32-43.163h981.581v982.326h-981.581v-982.326z" />
<glyph unicode="&#xe930;" d="M785.86 745.674c-174.884 0-350.512 0-525.395 0-20.093-2.977-31.256-14.884-34.977-34.977 0-135.442 0-271.628 0-407.070 5.953-24.558 20.837-36.465 46.884-37.953 4.465 0 8.186 0 12.651 0 46.14 0 93.023 0 139.163 0 3.721 0 6.698 0 10.419 0 6.698 0 8.93-3.721 8.186-9.674-1.488-11.163-8.186-19.349-15.628-26.047-9.674-8.186-19.349-14.884-29.767-22.326-11.163-8.186-17.116-19.349-14.14-33.488 2.233-13.395 11.163-21.581 24.558-23.814 77.395 0 154.791 0 232.186 0 13.395 2.233 22.326 10.419 24.558 23.814s-2.977 24.558-13.395 32.744c-3.721 2.977-7.442 5.209-11.163 8.186-11.163 8.186-23.814 15.628-30.512 28.279-8.93 17.116-8.186 23.814 12.651 23.070 49.86-0.744 99.721-0.744 149.581 0 28.279 0 43.907 11.907 49.86 37.953 0 135.442 0 271.628 0 407.070-3.721 19.349-15.628 31.256-35.721 34.233zM245.581 692.837c0 24.558 8.186 32.744 32.744 32.744 163.721 0 326.698 0 490.419 0 24.558 0 32.744-8.186 32.744-32.744 0-104.186 0-208.372 0-312.558 0-8.93-2.233-11.163-11.163-11.163-89.302 0.744-177.86 0-267.163 0-88.558 0-177.116 0-266.419 0-9.674 0-11.163 2.977-11.163 11.163 0 104.186 0 208.372 0 312.558zM624.372 189.767c2.977 0 5.953 0 8.93 0 5.209-0.744 8.186-3.721 8.186-9.674 0-5.209-2.977-8.93-8.186-9.674-4.465-0.744-8.186-0.744-12.651-0.744-65.488 0-130.977 0-196.465 0-2.977 0-5.953 0-8.93 0-5.953 0.744-10.419 2.977-10.419 9.674s4.465 9.674 10.419 9.674c2.977 0 5.209 0 8.186 0 33.488 0 66.977 0 99.721 0 33.488 0.744 66.977 0.744 101.209 0.744zM605.023 211.349c-55.070 0-108.651 0-163.721 0 17.116 14.884 25.302 32 26.047 52.837 0 4.465 2.233 5.953 5.953 5.953 33.488 0 66.233 0 99.721 0 3.721 0 5.953-0.744 6.698-5.209 0-21.581 8.186-39.442 25.302-53.581zM800.744 337.116c-0.744-8.186 0-17.116-0.744-25.302-1.488-12.651-9.674-20.093-21.581-21.581-3.721-0.744-7.442 0-11.907 0-162.233 0-324.465 0-486.698 0-26.791 0-34.233 7.442-34.233 34.233 0 24.558 0 24.558 24.558 24.558 84.093 0 168.93 0 253.023 0 88.558 0 177.116 0 266.419 0 8.93 0 12.651-2.233 11.163-11.907z" />
<glyph unicode="&#xe931;" d="M353.488 507.535c19.349-0.744 28.279-11.163 29.767-30.512 2.977-32.744 21.581-51.349 51.349-61.767 23.814-8.186 48.372-7.442 78.884-6.698 7.442 0 20.837-0.744 34.233 0 16.372 0.744 26.791 10.419 28.279 26.047 0.744 6.698 3.721 11.163 8.186 15.628 52.093 46.884 103.442 93.023 155.535 139.907 11.163 9.674 21.581 20.093 31.256 30.512 11.163 12.651 12.651 27.535 5.209 42.419-7.442 15.628-20.093 22.326-37.953 22.326-12.651 0-22.326-6.698-29.767-15.628-52.093-57.302-104.93-116.093-157.767-174.14-4.465-5.209-8.93-8.186-16.372-8.186-20.093 0-27.535-7.442-30.512-27.535-1.488-11.163-5.953-20.093-15.628-27.535-5.209-3.721-9.674-4.465-14.884-0.744-15.628 12.651-28.279 26.791-29.767 47.628-1.488 18.605-5.953 35.721-17.116 50.605-17.116 22.326-39.442 34.977-68.465 36.465-30.512 2.233-45.395 14.14-53.581 41.674-1.488 5.209-4.465 8.186-9.674 8.186-4.465 0.744-8.93 0-14.14 0-13.395 0-16.372-3.721-15.628-17.116 3.721-49.86 37.209-90.047 88.558-91.535zM619.907 542.512c34.977 37.953 69.953 76.651 104.93 114.605 6.698 7.442 14.884 11.163 25.302 6.698 7.442-2.977 11.163-8.93 11.163-17.116 0-6.698-2.977-11.907-7.442-16.372-37.209-36.465-77.395-69.953-115.349-105.674-2.977-2.977-5.209-2.977-8.186 0s-5.953 5.953-8.93 8.93c-5.209 2.977-5.209 5.209-1.488 8.93zM599.070 519.442c11.907 5.953 11.163-8.93 19.349-11.163-12.651-13.395-12.651-12.651-22.326-3.721-8.93 7.442-1.488 12.651 2.977 14.884zM577.488 495.628c4.465-4.465 8.186-8.93 11.907-12.651 0.744-0.744-12.651-14.14-14.14-13.395-5.209 2.233-9.674 7.442-9.674 11.163 0 5.953 6.698 9.674 11.907 14.884zM523.163 453.209c0.744 5.953-1.488 13.395 8.186 14.14s19.349 2.233 24.558-8.186c8.93-16.372 0.744-31.256-17.86-31.256-7.442 0-15.628 0-24.558 0 4.465 9.674 8.93 17.116 9.674 25.302zM293.209 580.465c14.884-20.093 34.233-31.256 59.535-33.488 43.907-3.721 65.488-24.558 70.698-69.209 1.488-13.395 5.953-25.302 13.395-36.465 0.744-1.488 1.488-2.233 2.233-3.721-17.86 0-33.488 17.116-34.977 37.209-2.233 28.279-16.372 46.884-40.186 51.349-6.698 1.488-14.14 1.488-20.837 2.233-27.535 4.465-44.651 20.837-52.837 46.884-3.721 5.209-3.721 11.163-4.465 20.093 2.977-5.953 5.209-10.419 7.442-14.884z" />
<glyph unicode="&#xe932;" d="M522.419 328.93c-5.953 0-8.93-3.721-8.93-9.674s3.721-8.93 9.674-9.674c5.209 0.744 9.674 3.721 9.674 9.674s-3.721 9.674-10.419 9.674z" />
<glyph unicode="&#xe933;" d="M290.233 576c0.744 1.488 0 4.465 2.233 4.465-3.721 0-2.977-2.233-2.233-4.465z" />
<glyph unicode="&#xe934;" d="M1035.163-64h-1024v1024h1024v-1024zM32-43.163h981.581v982.326h-981.581v-982.326z" />
<glyph unicode="&#xe935;" d="M806.698 529.116c-5.209 19.349-14.884 37.953-19.349 57.302-8.93 40.186 2.233 77.395 26.047 110.14 5.209 7.442 8.93 13.395 2.233 21.581-20.837 25.302-42.419 49.86-63.256 75.163-2.977 0-5.209 0-8.186 0-4.465-2.977-8.93-5.209-12.651-8.93-14.884-15.628-34.233-24.558-55.070-29.767-26.047-5.953-52.837-6.698-79.628-2.233-23.814 3.721-46.14 11.907-59.535 34.233-2.977 4.465-7.442 4.465-11.163 6.698-1.488 0-3.721 0-5.209 0-5.209-2.233-10.419-4.465-13.395-9.674-8.186-12.651-20.837-20.837-34.977-25.302-24.558-8.186-49.86-8.93-75.163-7.442-31.256 2.233-58.791 11.163-81.116 33.488-3.721 3.721-8.186 6.698-13.395 8.93-3.721 0-7.442 0-10.419 0-16.372-23.814-36.465-44.651-55.070-66.977-12.651-15.628-12.651-15.628-1.488-32 26.047-38.698 35.721-80.372 18.605-125.023-10.419-28.279-20.093-56.558-23.070-86.326-3.721-37.209-9.674-74.419 0-110.884 18.605-70.698 63.256-120.558 128-151.814 33.488-16.372 68.465-31.256 99.721-52.093 22.326-14.884 48.372-27.535 54.326-58.047 0.744-2.233 2.977-4.465 4.465-5.953 3.721 0 7.442 0 10.419 0 1.488 2.977 5.209 4.465 5.953 8.93 1.488 15.628 12.651 25.302 23.814 34.977 25.302 20.837 54.326 37.209 83.349 50.605 31.256 14.884 63.256 28.279 90.791 49.116 46.884 36.465 79.628 83.349 86.326 143.628 5.209 45.395 0.744 92.279-11.907 137.674zM753.86 299.907c-25.302-32.744-60.279-53.581-97.488-69.953-39.442-17.86-78.884-37.209-112.372-64.744-7.442-5.953-12.651-19.349-21.581-17.86-7.442 0.744-13.395 11.907-20.837 18.605-30.512 25.302-65.488 43.907-101.209 60.279-39.442 17.86-77.395 37.953-105.674 72.186-30.512 37.953-48.372 79.628-44.651 132.465 0.744 43.163 8.186 87.814 25.302 131.721 18.605 47.628 11.907 94.512-15.628 137.674-5.953 8.93-5.209 14.14 1.488 21.581 10.419 10.419 19.349 22.326 28.279 34.233 4.465 5.953 7.442 7.442 14.884 2.233 59.535-42.419 123.535-43.907 190.512-17.86 8.93 3.721 16.372 9.674 23.070 16.372 2.977 2.977 5.953 5.209 9.674 0.744 39.442-36.465 87.070-36.465 135.442-31.256 29.767 2.977 58.047 12.651 80.372 33.488 5.209 4.465 7.442 2.233 10.419-1.488 11.163-14.14 22.326-28.279 34.233-41.674 3.721-4.465 3.721-8.186 0.744-12.651-32.744-52.093-35.721-106.419-11.163-162.977 14.884-35.721 15.628-74.419 17.86-112.372 4.465-50.605-12.651-91.535-41.674-128.744z" />
<glyph unicode="&#xe936;" d="M727.070 657.86c1.488 11.907 5.953 23.070 8.93 34.977 2.977 12.651-4.465 19.349-16.372 15.628-3.721-0.744-7.442-2.977-11.163-4.465-49.116-22.326-99.721-24.558-149.581-6.698-25.302 8.93-44.651 9.674-70.698 0-52.093-18.605-104.93-15.628-155.535 8.93-6.698 2.977-13.395 6.698-20.093-0.744-5.209-5.953-2.977-12.651-0.744-18.605 14.14-40.93 15.628-83.349 1.488-124.279-14.14-41.674-27.535-82.605-27.535-126.512 0-14.14-2.233-27.535 0.744-41.674 12.651-54.326 43.907-93.023 93.023-119.070 45.395-23.814 93.023-43.163 133.953-73.674 5.953-4.465 12.651-3.721 18.605 0.744 39.442 29.767 84.093 49.116 128 69.953 50.605 24.558 88.558 63.256 97.488 119.814 8.186 48.372 2.977 98.977-17.116 145.116-15.628 39.442-19.349 78.884-13.395 120.558zM736 404.093c-4.465-44.651-32-78.884-71.442-101.953-35.721-20.837-75.163-34.233-110.14-56.558-1.488-0.744-2.233-1.488-3.721-2.233-19.349-19.349-36.465-15.628-57.302 0-30.512 21.581-65.488 34.233-98.977 50.605-41.674 20.093-70.698 52.093-81.86 97.488-6.698 27.535-1.488 56.558 1.488 84.093 2.233 21.581 8.93 41.674 17.116 61.767 15.628 40.186 18.605 82.605 9.674 138.419 32-11.163 64-15.628 96.744-12.651 26.791 2.233 52.093 6.698 76.651 17.86 5.209 2.233 10.419 4.465 16.372 0.744 44.651-23.070 122.047-26.791 176.372-4.465-4.465-22.326-6.698-43.907-5.209-65.488 1.488-28.279 6.698-55.814 17.86-82.605 17.116-39.442 20.837-82.605 16.372-125.023z" />
<glyph unicode="&#xe937;" d="M522.419 602.791c-78.14-0.744-142.884-66.233-142.14-144.372 0.744-77.395 66.977-142.14 143.628-141.395 78.14 0.744 142.884 66.233 142.14 144.372-0.744 77.395-66.233 141.395-143.628 141.395zM523.163 340.837c-64.744 0-119.070 55.070-119.070 119.814 0.744 64.744 54.326 118.326 119.070 118.326s119.070-54.326 119.070-119.814c-0.744-64.744-54.326-118.326-119.070-118.326z" />
<glyph unicode="&#xe938;" d="M569.302 490.419c-7.442 7.442-14.14 5.953-20.837-0.744-8.186-8.186-15.628-20.837-24.558-21.581-9.674-0.744-17.116 14.14-25.302 21.581s-14.884 7.442-22.326-0.744c-9.674-10.419-20.093-20.093-30.512-30.512-5.953-5.953-8.93-11.907-2.233-18.605s12.651-3.721 18.605 2.233c8.186 8.186 17.116 22.326 25.302 22.326 8.93 0 17.116-14.14 25.302-22.326 7.442-6.698 14.14-6.698 20.837 0s12.651 12.651 19.349 19.349c2.233 2.233 3.721 3.721 5.953 5.953 1.488-1.488 3.721-2.977 5.209-4.465 6.698-6.698 13.395-13.395 20.093-20.093 5.953-5.953 11.907-8.186 18.605-1.488 5.953 5.953 3.721 11.907-1.488 17.86-10.419 9.674-21.581 20.093-32 31.256z" />
<glyph unicode="&#xe939;" d="M1035.163-64h-1024v1024h1024v-1024zM32-43.163h981.581v982.326h-981.581v-982.326z" />
<glyph unicode="&#xe93a;" d="M364.651 558.14c4.465 4.465 8.93 8.186 8.93 14.884-0.744 5.209-2.977 8.93-8.186 11.163-7.442 2.977-11.907-1.488-16.372-5.953-39.442-39.442-78.14-78.14-117.581-117.581-9.674-9.674-8.186-17.116 0.744-26.047 19.349-18.605 37.953-37.953 56.558-56.558 20.093-20.093 40.186-40.93 61.023-60.279 8.93-8.93 20.093-7.442 23.070 2.977 2.233 8.186-3.721 12.651-8.186 17.116-34.233 34.233-67.721 68.465-101.953 101.953-6.698 6.698-7.442 9.674 0 17.116 34.233 32.744 67.721 66.977 101.953 101.209z" />
<glyph unicode="&#xe93b;" d="M813.395 461.395c-26.047 26.047-52.093 52.093-78.14 78.14-13.395 13.395-26.791 26.791-40.186 40.186-5.209 5.209-11.907 7.442-17.86 1.488-6.698-5.953-5.209-12.651 0.744-19.349 2.233-2.233 4.465-5.209 7.442-7.442 32.744-32.744 65.488-66.233 98.977-98.233 6.698-6.698 6.698-10.419 0-17.116-33.488-32.744-66.977-66.233-99.721-99.721-3.721-3.721-6.698-6.698-8.93-11.163-4.465-8.186 2.233-17.86 10.419-17.86 5.953 0.744 9.674 4.465 13.395 8.186 38.698 38.698 76.651 77.395 115.349 115.349 8.186 10.419 8.186 18.605-1.488 27.535z" />
<glyph unicode="&#xe93c;" d="M637.767 584.186c-8.186 2.233-12.651-2.977-14.884-9.674-0.744-2.977-1.488-5.209-2.977-8.186-23.070-76.651-45.395-153.302-68.465-229.953-0.744-3.721-2.233-7.442-2.233-8.93-0.744-9.674 2.233-14.14 8.93-15.628 5.953-1.488 10.419 1.488 13.395 6.698 2.233 3.721 3.721 8.186 4.465 11.907 15.628 50.605 30.512 101.953 46.14 153.302 8.186 27.535 16.372 55.814 24.558 83.349 2.233 8.186-0.744 14.884-8.93 17.116z" />
<glyph unicode="&#xe93d;" d="M507.535 336.372c-26.791 0-52.837 0-79.628 0-8.186 0-16.372-2.233-15.628-12.651 0-9.674 7.442-12.651 15.628-12.651 13.395 0 26.047 0 39.442 0s26.791 0 40.93 0c8.186 0 14.884 2.977 15.628 11.907-0.744 9.674-8.186 13.395-16.372 13.395z" />
<glyph unicode="&#xe93e;" d="M1035.163-64h-1024v1024h1024v-1024zM32-43.163h981.581v982.326h-981.581v-982.326z" />
<glyph unicode="&#xe93f;" d="M820.837 709.953c0 8.186-5.953 9.674-11.907 9.674-6.698 0.744-14.14 0.744-20.837 0-7.442 0-11.907 2.233-11.907 10.419 0 7.442-1.488 14.14-10.419 16.372-62.512 0-124.279 0-186.791 0-23.814-2.233-41.674-14.14-55.814-34.977-12.651 14.884-27.535 24.558-45.395 30.512-10.419 3.721-21.581 2.233-32 4.465-55.070 0-110.884 0-165.953 0-8.186-2.233-9.674-8.186-9.674-14.884 0-8.93-5.209-11.907-13.395-11.907-6.698 0-14.14 0.744-20.837 0-5.953-0.744-10.419-2.977-10.419-9.674 0-164.465 0-328.93 0-493.395 1.488-11.907 10.419-9.674 17.86-9.674 54.326 0 107.907-0.744 162.233 0 41.674 0.744 73.674-16.372 99.721-46.884 3.721-4.465 8.186-8.186 13.395-11.163 2.977 0 5.953 0 9.674 0 5.953 2.977 9.674 7.442 14.14 11.907 26.047 29.023 57.302 46.14 97.488 45.395 52.837-0.744 105.674 0 158.512 0 4.465 0 9.674 0 14.14 0.744 5.953 0.744 9.674 3.721 8.93 9.674-0.744 164.465-0.744 328.93-0.744 493.395zM293.953 718.14c0 4.465-1.488 8.93 6.698 8.93 48.372-0.744 96.744 0 144.372-1.488 17.116-0.744 33.488-6.698 47.628-16.372 12.651-8.93 20.093-20.093 20.093-35.721 0-141.395 0-282.791 0-426.419-34.977 26.047-72.186 33.488-113.116 32.744-32-0.744-64.744 0-96.744-0.744-6.698 0-8.93 1.488-8.93 8.93 0 142.884 0 286.512 0 430.14zM512 187.535c-20.093 19.349-43.163 32.744-69.209 39.442-5.209 1.488-10.419 1.488-16.372 1.488-56.558 0-113.86 0-170.419 0-9.674 0-11.163 2.977-11.163 11.907 0 148.837 0 297.674 0 445.767 0 9.674 2.977 12.651 11.907 11.163 1.488 0 2.233 0 3.721 0 11.163 2.233 14.884-1.488 14.884-14.14-0.744-96 0-191.256 0-287.256 0-39.442 0-79.628 0-119.070 0-15.628 2.233-17.86 17.86-17.86 43.907 0 87.814 0.744 131.721 0 23.070 0 45.395-7.442 64.744-19.349 17.86-11.907 29.767-26.791 22.326-52.093zM532.837 257.488c0 133.953 0 268.651 0 402.605 0 33.488 15.628 56.558 43.907 64.744 6.698 2.233 14.14 2.233 20.837 2.233 48.372 0 96.744 0 144.372 0 7.442 0 9.674-1.488 9.674-9.674 0-142.884 0-286.512 0-429.395 0-8.186-2.233-9.674-9.674-9.674-38.698 0-76.651 0.744-115.349 0-32.744 0-62.512-9.674-89.302-29.023-1.488-0.744-2.233-2.233-5.209-0.744 0.744 2.977 0.744 5.953 0.744 8.93zM802.233 504.558c0-87.814 0-174.884 0-262.698 0-10.419-1.488-13.395-12.651-13.395-52.837 0.744-105.674 0-158.512 0.744-32.744 0.744-60.279-12.651-84.837-32-2.977-2.977-6.698-5.209-9.674-8.186 0 0-0.744 0-2.233 0-0.744 30.512 9.674 46.884 38.698 58.047 19.349 7.442 39.442 12.651 61.023 11.907 40.186-0.744 80.372 0 120.558 0 16.372 0 18.605 2.233 18.605 18.605 0 135.442 0 270.884 0 406.326 0 4.465-2.977 11.907 2.233 12.651 8.186 1.488 17.116 1.488 25.302 0 3.721-0.744 2.233-6.698 2.233-10.419-0.744-61.023-0.744-121.302-0.744-181.581z" />
<glyph unicode="&#xe940;" d="M324.465 497.116c0-8.93 7.442-9.674 14.14-9.674 21.581 0 43.163 0 65.488 0 21.581 0 42.419 0 64 0 7.442 0 14.884 1.488 14.884 10.419 0 8.186-7.442 9.674-14.14 9.674-43.163 0-86.326 0-129.488 0-7.442 0.744-14.884 0-14.884-10.419z" />
<glyph unicode="&#xe941;" d="M410.791 368.372c-11.907 0-23.814 0-36.465 0s-24.558 0-37.209 0c-6.698 0-12.651-2.233-12.651-10.419 0-7.442 5.209-9.674 11.907-9.674 24.558 0 49.86 0 74.419 0 6.698 0 11.907 2.233 11.907 9.674 0.744 8.186-5.209 10.419-11.907 10.419z" />
<glyph unicode="&#xe942;" d="M373.581 587.907c12.651 0 25.302 0 38.698 0 5.953 0 10.419 2.233 11.163 8.93 0 7.442-4.465 10.419-11.163 10.419-25.302 0-50.605 0-75.907 0-6.698 0-11.907-2.233-11.907-9.674s5.209-9.674 11.907-9.674c12.651 0 24.558 0 37.209 0z" />
<glyph unicode="&#xe943;" d="M337.116 418.233c-6.698 0-12.651-1.488-12.651-10.419 0-7.442 5.209-9.674 11.907-9.674 24.558 0 49.86 0 74.419 0 6.698 0 11.907 2.233 11.907 9.674 0 8.186-5.209 10.419-12.651 10.419-11.907 0-23.814 0-36.465 0-11.907 0-23.814 0-36.465 0z" />
<glyph unicode="&#xe944;" d="M414.512 637.023c8.93 0 18.605 0 27.535 0 9.674 0 19.349 0 29.023 0 6.698 0 11.163 2.977 11.163 10.419 0 6.698-4.465 9.674-11.163 9.674-19.349 0-38.698 0-58.047 0-5.953 0-10.419-3.721-10.419-10.419 1.488-5.953 5.953-8.93 11.907-9.674z" />
<glyph unicode="&#xe945;" d="M471.070 468.093c-18.605 0-37.209 0-55.814 0-6.698 0-11.907-2.977-11.163-10.419 0-7.442 5.209-9.674 11.907-9.674 8.93 0 18.605 0 27.535 0s17.86 0 26.791 0c7.442 0 12.651 2.233 12.651 10.419 0 6.698-5.209 9.674-11.907 9.674z" />
<glyph unicode="&#xe946;" d="M471.814 557.395c-8.93 0-18.605 0-27.535 0-9.674 0-19.349 0-29.023 0-5.953 0-10.419-2.977-10.419-9.674s4.465-10.419 10.419-10.419c19.349 0 38.698 0 58.047 0 5.953 0 11.163 2.977 11.163 9.674-1.488 7.442-5.953 10.419-12.651 10.419z" />
<glyph unicode="&#xe947;" d="M334.884 637.023c5.953 0 12.651 0 18.605 0 6.698 0 13.395 0 20.093 0 5.953 0 9.674 2.977 9.674 9.674 0.744 5.953-2.977 9.674-8.93 10.419-13.395 0.744-27.535 0.744-40.93 0-5.953 0-9.674-3.721-9.674-9.674 0.744-6.698 5.209-9.674 11.163-10.419z" />
<glyph unicode="&#xe948;" d="M334.14 448c6.698 0 13.395 0 20.093 0s13.395 0 20.093 0c5.953 0 9.674 3.721 9.674 9.674s-3.721 9.674-8.93 9.674c-13.395 0.744-26.791 0.744-40.93 0-5.953 0-8.93-3.721-8.93-9.674-0.744-5.953 2.977-8.93 8.93-9.674z" />
<glyph unicode="&#xe949;" d="M334.14 538.047c13.395 0 26.047-0.744 39.442 0 5.953 0 9.674 2.977 9.674 9.674s-3.721 9.674-10.419 10.419c-5.953 0-12.651 0-18.605 0-6.698 0-13.395 0-20.093 0-5.953 0-10.419-3.721-10.419-10.419 0.744-6.698 4.465-9.674 10.419-9.674z" />
<glyph unicode="&#xe94a;" d="M463.628 587.907c8.186 0.744 20.093-2.977 19.349 10.419 0 11.907-11.163 9.674-18.605 8.93-8.186 0-19.349 3.721-19.349-9.674-0.744-13.395 10.419-8.93 18.605-9.674z" />
<glyph unicode="&#xe94b;" d="M463.628 418.233c-7.442-0.744-19.349 2.977-19.349-10.419 0-12.651 11.907-8.93 20.093-9.674 7.442 0 18.605-2.977 18.605 8.93 0 14.14-11.907 10.419-19.349 11.163z" />
<glyph unicode="&#xe94c;" d="M463.628 368.372c-5.953 0-10.419-4.465-9.674-10.419s4.465-8.93 10.419-8.93c5.953 0 8.93 4.465 9.674 9.674-1.488 5.953-5.209 9.674-10.419 9.674z" />
<glyph unicode="&#xe94d;" d="M573.023 439.814c-0.744-5.209 1.488-10.419 8.186-11.163s10.419 2.233 11.907 8.93c0.744 3.721 1.488 7.442 1.488 11.163 0 7.442 3.721 8.93 11.163 8.93 21.581-0.744 43.163 0 64 0 18.605 0 18.605 0 22.326-18.605 1.488-5.953 3.721-11.907 11.163-10.419 8.186 0.744 9.674 6.698 8.93 13.395-5.209 40.186-17.86 76.651-50.605 105.674 14.884 12.651 26.047 27.535 34.233 44.651 8.93 19.349 14.14 40.186 16.372 61.767 0.744 6.698-2.233 11.907-8.93 12.651s-9.674-3.721-10.419-9.674c-0.744-3.721-1.488-6.698-1.488-10.419 0-6.698-2.977-9.674-11.163-9.674-20.837 0.744-40.93 0-61.767 0-7.442 0-16.372-1.488-21.581 1.488-3.721 2.233-2.977 11.907-3.721 18.605-1.488 5.953-4.465 10.419-11.163 9.674s-9.674-5.209-8.93-11.907c4.465-38.698 15.628-73.674 43.907-101.209 5.953-5.953 5.209-7.442 0-12.651-28.279-27.535-39.442-62.512-43.907-101.209zM617.674 597.581c-4.465 0-8.186-0.744-11.163 5.209-6.698 14.884-6.698 14.884 8.93 14.884 18.605 0 37.209 0 55.814 0 3.721 0 11.163 2.233 9.674-2.977-1.488-5.953-0.744-16.372-11.907-17.116-9.674-0.744-18.605 0-28.279 0-6.698 0-14.884 0-23.070 0zM661.581 518.698c-2.233 0-3.721 0-5.953-0.744-10.419 0-20.837 0-33.488 0 20.093 20.093 20.093 23.814 39.442 0.744zM623.628 577.488c12.651 0 24.558 0 37.209 0-15.628-22.326-20.093-22.326-37.209 0zM625.116 497.86c11.907 0 23.070 0 34.977 0 18.605 0 18.605 0 23.070-19.349-26.791 0-53.581 0-79.628 0 3.721 19.349 3.721 19.349 21.581 19.349z" />
<glyph unicode="&#xe94e;" d="M576.744 338.605c11.907 0 23.814 0 35.721 0s23.814 0 35.721 0c6.698 0 13.395 2.233 13.395 9.674 0.744 8.186-5.953 11.163-13.395 11.163-23.814 0-48.372 0-72.186 0-7.442 0-14.14-2.233-13.395-10.419 0.744-8.93 7.442-10.419 14.14-10.419z" />
<glyph unicode="&#xe94f;" d="M636.279 408.558c-6.698 0-12.651-1.488-12.651-9.674s5.953-10.419 12.651-10.419c11.907 0 23.814 0 36.465 0s24.558 0 37.209 0c6.698 0 12.651 2.233 11.907 10.419-0.744 7.442-5.953 9.674-11.907 9.674-24.558 0-49.116 0-73.674 0z" />
<glyph unicode="&#xe950;" d="M583.442 388.465c7.442 0 18.605-2.233 19.349 9.674 0.744 13.395-11.163 9.674-18.605 10.419-8.186-0.744-20.093 2.977-20.093-10.419-0.744-11.907 11.163-9.674 19.349-9.674z" />
<glyph unicode="&#xe951;" d="M1035.163-64h-1024v1024h1024v-1024zM32-43.163h981.581v982.326h-981.581v-982.326z" />
<glyph unicode="&#xe952;" d="M809.674 631.814c-5.209 9.674-13.395 17.116-21.581 23.814-17.86 14.884-29.023 31.256-24.558 55.814 0 0.744 0 2.233 0 3.721-1.488 14.884-7.442 26.791-23.814 30.512-151.814 0-303.628 0-455.442 0-15.628-3.721-22.326-15.628-23.814-30.512-0.744-5.953-0.744-11.907 0-17.116 1.488-11.907-3.721-20.837-11.907-29.767-11.907-11.163-25.302-21.581-33.488-36.465 0-27.535 0-55.814 0-83.349 0-129.488 0-258.977 0-388.465 0-8.186 2.233-9.674 9.674-9.674 17.116 0.744 34.233 0 51.349 0 3.721 4.465 3.721 9.674 3.721 15.628 0 8.186 3.721 11.163 11.163 11.163 3.721 0 6.698 0 10.419 0 140.651 0 282.047 0 422.698 0 3.721 0 6.698 0 10.419 0 7.442 0 11.163-2.977 11.163-11.163 0-5.209 0-11.163 3.721-15.628 17.116 0 34.233 0.744 51.349 0 8.186 0 9.674 1.488 9.674 9.674-0.744 157.023-0.744 314.791-0.744 471.814zM608.744 725.581c14.884 0 30.512-0.744 45.395 0 5.953 0 7.442-2.233 6.698-7.442-5.209-33.488 6.698-61.767 26.047-87.814 6.698-9.674 3.721-20.093 3.721-30.512 0-5.209-4.465-2.977-7.442-2.977-11.163 0-21.581 0-32.744 0s-21.581 0-32.744 0c-5.953 0-7.442 1.488-6.698 7.442 1.488 17.86-2.233 35.721-5.953 52.837-5.209 20.093-3.721 40.93-3.721 61.023-0.744 5.953 1.488 8.186 7.442 7.442zM690.605 570.047c-0.744-18.605-15.628-32-36.465-32.744-22.326-1.488-39.442 10.419-42.419 29.023-1.488 7.442 0 11.163 8.93 10.419 9.674-0.744 20.093 0 29.767 0 11.163 0 22.326 0 33.488 0 5.209 0.744 6.698-1.488 6.698-6.698zM521.674 608.744c1.488 17.116 0 34.977 0 52.093 0 17.86 0 36.465 0 54.326 0 6.698 0.744 10.419 9.674 10.419 14.14-0.744 28.279-0.744 43.163 0 5.953 0 8.186-1.488 7.442-8.186-2.233-29.767 2.977-59.535 8.93-88.558 5.953-30.512 3.721-32.744-26.791-32.744-9.674 0-19.349 0.744-29.023 0-10.419 0-14.14 2.233-13.395 12.651zM590.884 566.326c-2.977-16.372-18.605-29.023-35.721-29.023-17.86 0.744-32 14.884-33.488 32-0.744 5.953 1.488 7.442 6.698 7.442 8.93 0 18.605 0 27.535 0 8.186 0 17.116-0.744 25.302 0 10.419 1.488 10.419-3.721 9.674-10.419zM439.814 662.326c3.721 17.86 1.488 36.465 2.233 54.326 0 7.442 2.233 8.93 8.93 8.93 13.395-0.744 26.791-0.744 40.93 0 8.186 0 10.419-1.488 10.419-10.419-0.744-17.86 0-36.465 0-54.326 0-18.605 0-37.209 0-55.814 0-5.953-1.488-8.93-8.186-8.93-17.86 0.744-35.721 0.744-53.581 0-6.698 0-8.186 2.233-8.186 8.186-0.744 20.837 3.721 39.442 7.442 58.047zM501.581 567.814c-2.977-17.116-17.116-29.767-34.233-29.767-16.372 0-31.256 12.651-34.233 29.023-1.488 6.698-0.744 11.907 8.93 11.163 8.186-0.744 17.116 0 25.302 0 8.93 0 17.86-0.744 26.791 0 7.442-0.744 8.93-3.721 7.442-10.419zM372.837 725.581c14.14-0.744 27.535-0.744 41.674 0 5.953 0 8.186-1.488 8.186-8.186 0-22.326 0.744-44.651-5.209-66.977-3.721-14.884-5.953-29.767-4.465-44.651 0.744-7.442-1.488-10.419-8.93-9.674-10.419 0.744-20.837 0-31.256 0-11.163 0-21.581 0-32.744 0-5.209 0-6.698 1.488-6.698 6.698 0 11.907 0 23.814 8.186 33.488 18.605 23.070 26.047 49.116 21.581 78.884-1.488 8.93 2.233 11.163 9.674 10.419zM412.279 569.302c-0.744-2.977-0.744-5.209-1.488-8.186-5.953-17.116-21.581-25.302-42.419-23.814-18.605 1.488-31.256 12.651-34.233 30.512-1.488 6.698 0 9.674 8.186 9.674 10.419-0.744 20.837 0 31.256 0 11.163 0 21.581 0 32 0 5.953 0 8.186-2.977 6.698-8.186zM246.326 634.791c2.233 1.488 4.465 4.465 6.698 6.698 24.558 17.86 37.209 40.93 31.256 72.186-1.488 9.674 3.721 13.395 13.395 12.651 12.651 0 25.302 0 37.953 0 5.953 0 8.186-1.488 8.186-7.442-0.744-11.163 0-22.326 0-33.488 0-5.953-2.977-10.419-5.953-14.884-4.465-6.698-7.442-14.14-12.651-20.837-8.93-12.651-13.395-26.047-11.163-40.93 1.488-9.674-2.977-11.907-11.163-11.163-9.674 0.744-19.349 0-29.023 0-11.163 0-21.581 0-32.744 0-4.465 0-6.698 1.488-6.698 6.698-0.744 11.163 0 22.326 11.907 30.512zM234.419 520.186c0 2.977 0 5.209 0.744 8.186 19.349-8.186 19.349-8.186 19.349-27.535 0-56.558 0-113.86 0-170.419 0-7.442-0.744-11.163-9.674-10.419-8.186 0-10.419 2.233-10.419 10.419 0 62.512 0 125.767 0 189.767zM235.163 568.558c-0.744 6.698 0 8.93 7.442 8.93 11.163-0.744 21.581 0 32.744 0s21.581 0 32.744 0c5.209 0 6.698-1.488 5.953-6.698-1.488-19.349-16.372-32.744-38.698-33.488s-37.953 11.163-40.186 31.256zM244.093 170.419c-3.721 0-10.419-2.233-9.674 5.953s6.698 2.977 10.419 4.465c3.721-0.744 10.419 2.233 9.674-5.953-0.744-7.442-6.698-3.721-10.419-4.465zM254.512 200.186c-20.093 0-20.093 0-20.093 20.093 0 23.814 0 46.884 0 70.698 0 6.698 1.488 8.93 8.93 8.93 20.837 0 20.837 0 20.837-20.837 0-9.674 0-19.349 0-29.023 0-13.395-0.744-26.791 0-40.93 0-7.442-2.233-8.93-9.674-8.93zM293.953 200.186c-5.953 0-10.419-0.744-9.674 8.186 0.744 28.279 0.744 56.558 0 84.837 0 8.93 5.209 6.698 9.674 6.698s10.419 2.977 10.419-6.698c-0.744-14.14 0-28.279 0-43.163 0-14.14-0.744-27.535 0-41.674 0-8.186-4.465-8.186-10.419-8.186zM343.070 250.791c0-14.14-0.744-29.023 0-43.163 0-8.93-5.209-7.442-10.419-7.442s-9.674 0-8.93 7.442c0.744 28.279 0.744 56.558 0 84.837 0 8.186 4.465 7.442 9.674 6.698 4.465 0 11.163 2.233 10.419-6.698-0.744-14.14-0.744-28.279-0.744-41.674zM383.256 206.884c0-9.674-5.953-6.698-11.163-6.698-5.953-0.744-9.674 0-8.93 7.442 0.744 14.14 0 28.279 0 43.163 0 14.14 0.744 27.535 0 41.674-0.744 8.186 3.721 8.186 8.93 7.442 4.465-0.744 11.163 2.977 11.163-6.698 0-29.023 0-57.302 0-86.326zM392.93 427.163c0 8.186 2.977 20.837-10.419 20.093-12.651 0-9.674-11.907-9.674-20.093 0-14.14 0-27.535 0-41.674-0.744-0.744-1.488-0.744-2.977-1.488-15.628 16.372-32 32.744-47.628 48.372-4.465 4.465-2.977 6.698 0.744 9.674 34.233 32 85.581 32 119.814 0 4.465-4.465 4.465-6.698 0-11.163-16.372-15.628-32-32-49.86-49.86 0 18.605 0.744 32 0 46.14zM383.256 318.512c-15.628 0-9.674 10.419-10.419 17.116 0 4.465-4.465 12.651 4.465 12.651 15.628 0 15.628-0.744 15.628-14.884-0.744-5.953 4.465-14.14-9.674-14.884zM413.023 200.186c-5.209 0-10.419-0.744-10.419 8.186 0.744 28.279 0.744 56.558 0 84.837 0 8.93 4.465 7.442 9.674 6.698 4.465 0 11.163 2.977 11.163-6.698-0.744-14.14 0-28.279 0-43.163 0-14.14-0.744-27.535 0-41.674 0-8.93-5.209-8.186-10.419-8.186zM451.721 200.186c-6.698-0.744-9.674 1.488-9.674 8.93 0.744 14.14 0 27.535 0 41.674 0 13.395 0.744 26.791 0 40.93-0.744 8.186 2.977 8.93 9.674 8.186 5.209-0.744 11.163 2.233 11.163-8.186-0.744-27.535-0.744-55.814 0-83.349 0-10.419-5.953-7.442-11.163-8.186zM491.907 200.186c-5.209 0-9.674-0.744-9.674 7.442 0.744 28.279 0.744 57.302 0 85.581 0 8.93 5.953 5.953 10.419 5.953s10.419 2.977 10.419-5.953c-0.744-14.884 0-29.023 0-43.907 0-14.14-0.744-27.535 0-41.674 0-9.674-6.698-7.442-11.163-7.442zM541.767 249.302c0-14.14-0.744-27.535 0-41.674 0.744-8.93-5.209-7.442-10.419-7.442-5.953 0-10.419-0.744-10.419 8.186 0.744 28.279 0.744 56.558 0 84.837 0 9.674 6.698 5.953 11.163 6.698 5.209 0.744 9.674 1.488 9.674-6.698 0-14.884 0-29.023 0-43.907zM581.953 207.628c0-8.93-5.209-7.442-10.419-7.442-5.953 0-10.419 0-9.674 8.186 0.744 14.14 0 28.279 0 43.163 0 13.395 0.744 26.791 0 40.93-0.744 8.93 4.465 8.186 10.419 7.442 5.209 0 10.419 2.233 10.419-7.442-1.488-28.279-1.488-56.558-0.744-84.837zM581.953 340.093c0 10.419 8.93 19.349 19.349 19.349s20.093-9.674 19.349-20.093c-0.744-10.419-9.674-18.605-20.093-18.605-10.419-0.744-19.349 8.186-18.605 19.349zM621.395 250.047c0-14.14-0.744-28.279 0-43.163 0-8.186-4.465-7.442-9.674-7.442s-11.163-1.488-10.419 7.442c0.744 28.279 0 57.302 0 85.581 0 9.674 7.442 5.209 11.907 5.953s8.93 1.488 8.93-6.698c-1.488-13.395-0.744-27.535-0.744-41.674zM611.721 398.884c0 11.163 8.93 19.349 20.093 19.349 10.419-0.744 19.349-9.674 19.349-19.349 0-10.419-10.419-20.093-20.837-19.349-10.419 0-18.605 8.93-18.605 19.349zM660.837 250.047c0-14.14 0-28.279 0-43.163 0-7.442-3.721-7.442-8.186-6.698s-11.907-2.977-11.907 6.698c0 29.023 0 58.047 0 87.070 0 9.674 7.442 5.209 11.907 5.953s8.93 0.744 8.186-6.698c-0.744-14.884 0-29.023 0-43.163zM660.093 320c-10.419 0.744-18.605 8.93-18.605 20.093s9.674 19.349 20.093 19.349c10.419-0.744 18.605-8.93 18.605-20.093 0-11.907-8.93-20.093-20.093-19.349zM700.279 250.791c0-14.14-0.744-29.023 0-43.163 0-8.186-3.721-7.442-9.674-7.442-5.209 0-11.163-1.488-10.419 7.442 0.744 28.279 0.744 56.558 0 84.837 0 9.674 5.953 6.698 10.419 6.698 5.209 0 9.674 1.488 9.674-7.442-0.744-13.395 0-27.535 0-40.93zM739.721 250.047c0-14.14-0.744-28.279 0-43.163 0-8.186-5.209-6.698-9.674-6.698s-10.419-1.488-9.674 6.698c0 28.279 0.744 57.302 0 85.581 0 8.93 5.209 6.698 9.674 6.698s10.419 2.233 9.674-6.698c0-14.14 0-28.279 0-42.419zM750.14 328.186c0-6.698-1.488-8.93-8.186-8.93-14.884 0.744-29.767 0-45.395 0 6.698 26.047 3.721 43.163-12.651 51.349-14.14 6.698-16.372 12.651-14.14 27.535 2.977 16.372-6.698 29.023-21.581 35.721-14.884 7.442-29.767 5.209-42.419-5.209s-17.86-24.558-11.907-40.93c2.977-7.442 1.488-9.674-5.953-12.651-20.093-6.698-29.767-26.791-23.070-49.116 1.488-6.698 0.744-7.442-5.209-7.442-46.14 0-92.279 0-138.419 0-5.953 0-8.186 1.488-8.186 7.442-0.744 21.581-0.744 21.581 20.837 21.581 5.953 0 12.651 0 18.605 0s10.419 3.721 10.419 10.419c0 5.953-4.465 9.674-11.163 9.674-14.14 0-27.535 0-44.651 0 22.326 22.326 42.419 43.163 63.256 62.512 5.209 4.465 5.209 7.442 0 12.651-19.349 20.093-40.93 36.465-69.209 40.93-36.465 5.953-67.721-5.209-94.512-30.512-17.116-16.372-17.116-16.372-0.744-32.744 17.116-17.116 34.233-34.233 52.837-52.837-14.884 0-27.535 0-40.186 0-7.442 0-14.14-0.744-14.14-9.674 0-9.674 7.442-10.419 14.884-10.419 8.93 0 18.605 0 27.535 0 4.465 0 6.698-1.488 6.698-6.698 1.488-23.070 1.488-23.070-20.837-23.070-17.116 0-34.233 0-51.349 0-5.953 0-7.442 2.233-7.442 8.186 0 61.023 0 121.302 0 182.326 0 6.698 2.233 8.186 8.186 8.93 14.14 0.744 26.047 6.698 35.721 16.372 2.233 2.233 3.721 6.698 8.93 2.233 33.488-28.279 65.488-26.791 95.256 2.977 7.442-7.442 14.14-14.884 24.558-18.605 21.581-8.186 41.674-4.465 58.047 11.907 5.953 5.953 8.186 5.209 14.14-0.744 20.837-20.837 55.070-20.837 75.907 0.744 4.465 4.465 6.698 6.698 11.907 0.744 22.326-23.814 64-23.814 87.070-0.744 5.953 5.953 8.186 5.209 13.395 0 8.93-9.674 20.837-14.884 34.233-15.628 6.698 0 8.93-1.488 8.93-8.93-0.744-58.791-0.744-119.070 0-179.349zM789.581 331.907c0-7.442 0.744-12.651-10.419-12.651-11.907 0-9.674 6.698-9.674 13.395 0 55.814 0 112.372 0 168.186 0 19.349 0 19.349 19.349 27.535 0-16.372 0-32.744 0-49.116 0.744-49.116 0.744-98.233 0.744-147.349zM788.837 567.814c-2.977-18.605-17.86-30.512-40.186-30.512-21.581 0-36.465 13.395-38.698 32-0.744 5.953 1.488 7.442 6.698 7.442 11.163 0 21.581 0 32.744 0 10.419 0 20.837-0.744 31.256 0 8.186 0.744 8.93-2.233 8.186-8.93zM759.814 219.535c0 23.814 0 47.628 0 72.186 0 5.953 1.488 8.186 7.442 8.186 22.326 0.744 22.326 0.744 22.326-20.837 0-8.93 0-18.605 0-27.535 0-13.395 0-26.791 0-40.93 0-6.698-0.744-10.419-9.674-10.419-20.093 0-20.093-0.744-20.093 19.349zM779.163 170.419c-3.721 0-9.674-2.977-9.674 5.209s6.698 3.721 9.674 5.209c3.721-1.488 10.419 2.977 10.419-5.209s-5.953-5.209-10.419-5.209zM789.581 599.814c0-5.209-4.465-2.977-6.698-2.977-11.163 0-21.581 0-32.744 0-2.977 0-5.209 0-8.186 0-9.674 0-22.326-2.977-29.023 1.488s-1.488 17.86-2.233 27.535c0 3.721-1.488 6.698-3.721 9.674-2.977 5.953-5.953 11.907-10.419 16.372-17.116 19.349-16.372 43.163-15.628 66.233 0 5.953 2.233 7.442 7.442 7.442 13.395 0 26.047 0 39.442 0 8.186 0 14.14-3.721 12.651-12.651-6.698-32 7.442-54.326 32-72.93 3.721-2.977 5.953-7.442 9.674-9.674 11.163-7.442 6.698-19.349 7.442-30.512z" />
<glyph unicode="&#xe953;" d="M1024-64h-1024v1024h1024v-1024zM20.837-43.163h981.581v982.326h-981.581v-982.326z" />
<glyph unicode="&#xe954;" d="M747.163 311.814c3.721-16.372 14.884-27.535 29.767-28.279 17.86-1.488 26.791 5.953 32.744 23.814 0 44.651 0 90.047 0 134.698-11.163 18.605-22.326 25.302-37.953 20.837-11.907-3.721-23.070-12.651-21.581-37.953 0.744-10.419 0-20.837 0-31.256 0-3.721 2.233-9.674-5.209-8.93-7.442 0-4.465 5.953-4.465 9.674-0.744 20.837 2.233 40.93-1.488 61.767-12.651 77.395-59.535 124.279-133.209 145.86-8.186 2.233-20.093-1.488-23.070 7.442-2.977 7.442-0.744 17.86-0.744 26.791 0 5.209 1.488 7.442 6.698 7.442 7.442-0.744 15.628 0 23.070 0 5.953 0.744 9.674 3.721 9.674 9.674 0 5.209-2.977 9.674-8.186 9.674-13.395-1.488-11.907 6.698-11.907 14.884 0 4.465 0.744 9.674 0 14.14-0.744 7.442 0 12.651 10.419 11.907 5.953-0.744 9.674 2.977 9.674 8.93s-2.977 9.674-8.93 9.674c-26.791 0-54.326 0-81.116 0-5.953 0-8.186-3.721-8.93-8.93 0-5.209 2.233-10.419 7.442-9.674 13.395 1.488 12.651-6.698 11.907-15.628 0-4.465 0-9.674 0-14.14 0.744-6.698 0-11.907-8.93-11.163-5.953 0.744-10.419-2.977-10.419-9.674s4.465-10.419 11.163-10.419c6.698 0 14.14 0 20.837 0 2.233 0 6.698 1.488 6.698-2.233 0.744-10.419 2.233-21.581-0.744-31.256-2.233-6.698-12.651-2.977-19.349-3.721-2.977-0.744-5.209-0.744-8.186-1.488-40.186-8.93-78.884-23.814-119.070-34.233-33.488-8.93-66.977-10.419-98.977 6.698-13.395 7.442-20.093 20.093-29.767 30.512-20.837 24.558-55.070 20.093-68.465-8.93-0.744-1.488 0-3.721-2.977-4.465 0-81.86 0-164.465 0-246.326 2.233-8.186 2.233-17.86 10.419-22.326 14.884-8.186 17.86-20.093 17.116-35.721-0.744-8.186 2.977-14.884 11.907-15.628 7.442-0.744 11.907 5.953 12.651 16.372 0 3.721 0 6.698 0 10.419-0.744 8.186 2.233 14.14 9.674 19.349 13.395 8.186 20.093 21.581 20.093 37.209 0 5.209 0 11.163 0 16.372 0.744 29.023 19.349 47.628 48.372 47.628 44.651 0 90.047 0 134.698 0 37.953 0 61.767-29.767 54.326-66.977-5.209-26.047-12.651-52.093-18.605-78.14-3.721-15.628-4.465-15.628-20.093-16.372-54.326 0-109.395 0-163.721 0-24.558 0-49.86 0.744-74.419 0-23.070-0.744-37.209-11.907-42.419-33.488 0-5.953 0-12.651 0-18.605 5.953-24.558 17.86-33.488 43.907-33.488 168.93 0 338.605 0 507.535 0 26.047 0 37.953 8.93 43.907 33.488 0 5.953 0 12.651 0 18.605-5.209 19.349-17.116 30.512-37.209 32.744-5.209 0.744-11.163 0.744-16.372 0.744-11.907 0-13.395 1.488-13.395 13.395 0 23.814 0 46.884 0 70.698 0 4.465-0.744 8.93 1.488 15.628 1.488-7.442 0.744-11.907 0.744-16.372 2.233-10.419 0.744-20.837 2.977-31.256zM789.581 317.767c-0.744-6.698-2.233-11.907-9.674-11.907s-9.674 5.209-10.419 11.907c-0.744 8.186 3.721 8.93 8.93 7.442 7.442 1.488 12.651 1.488 11.163-7.442zM780.651 444.279c8.186 0 8.93-6.698 9.674-13.395 0.744-9.674-6.698-5.953-11.163-6.698-5.953-0.744-9.674 0.744-8.93 7.442 0 8.186 2.233 13.395 10.419 12.651zM779.907 404.837c8.93 2.233 9.674-2.233 10.419-9.674 0-8.186-2.233-10.419-10.419-10.419-8.93 0-9.674 2.977-9.674 10.419-0.744 7.442 0.744 11.907 9.674 9.674zM770.233 354.233c-1.488 8.186 0 11.907 8.93 11.907 7.442 0 11.163-1.488 11.163-9.674 0-7.442-0.744-11.907-9.674-11.163-6.698 0.744-13.395-0.744-10.419 8.93zM561.116 666.791c0 10.419-0.744 20.837 0 31.256 0.744 8.186 8.186 3.721 11.907 4.465s8.186 1.488 8.186-5.209c0-5.209 0-10.419 0-14.884 0-2.977 0-5.953 0-8.93 0-8.93-9.674-14.14-17.86-9.674-1.488 0.744-2.233 1.488-2.233 2.977zM556.651 343.814c13.395 55.070-21.581 100.465-78.884 100.465-42.419 0-85.581 0-128 0-46.884 0-75.163-29.023-75.163-75.163 0-5.209 0-10.419 0-14.884-1.488-11.163-9.674-18.605-20.093-18.605-9.674 0-17.86 8.186-19.349 18.605 0 2.233 0 3.721 0 5.953 0 72.93 0 145.86 0 218.791 0 11.163 2.977 20.093 14.14 23.814 10.419 3.721 17.86-2.233 23.070-10.419 24.558-38.698 61.767-48.372 104.186-47.628 36.465 0.744 69.953 15.628 104.186 25.302 29.023 7.442 57.302 18.605 88.558 17.86 81.86-2.233 150.326-70.698 150.326-152.558 0-55.070 0-110.884 0-165.953 0-9.674-2.977-11.907-11.907-11.907-57.302 0.744-114.605 0-173.395 0 8.186 29.023 15.628 58.047 22.326 86.326zM760.558 235.907c4.465 0 8.93 0 12.651-0.744 9.674-1.488 14.884-7.442 15.628-17.116s-3.721-16.372-12.651-20.093c-4.465-2.233-9.674-2.233-14.884-2.233-166.698 0-333.395 0-499.349 0-4.465 0-8.93 0-14.14 1.488-9.674 2.977-14.884 9.674-14.14 20.093s6.698 16.372 17.116 17.86c4.465 0.744 8.186 0.744 12.651 0.744 82.605 0 165.209 0 247.814 0 83.349 0 165.953 0 249.302 0z" />
<glyph unicode="&#xe955;" d="M660.837 474.791c0 27.535-22.326 49.116-49.86 49.116s-49.116-21.581-49.86-49.116c0-27.535 23.070-50.605 49.86-49.86 28.279 0.744 49.86 22.326 49.86 49.86zM581.953 474.791c0 16.372 13.395 29.767 29.023 29.767 16.372 0 29.767-12.651 29.767-29.023s-12.651-29.767-28.279-29.767c-17.116-1.488-30.512 11.907-30.512 29.023z" />
<glyph unicode="&#xe956;" d="M449.488 484.465c-15.628 0-31.256 0-46.14 0-15.628 0-32 0-47.628 0-6.698 0-11.163-2.233-11.907-9.674 0-7.442 5.209-10.419 11.163-10.419 32 0 63.256 0 95.256 0 6.698 0 11.907 2.977 11.907 9.674 0 8.186-5.209 10.419-12.651 10.419z" />
<glyph unicode="&#xe957;" d="M354.233 504.558c9.674 0 19.349 0 29.023 0s19.349 0 29.023 0c5.953 0 10.419 2.977 10.419 9.674s-3.721 9.674-10.419 9.674c-19.349 0-38.698 0-58.047 0-6.698 0-10.419-2.977-10.419-9.674s3.721-9.674 10.419-9.674z" />
<glyph unicode="&#xe958;" d="M612.465 315.535c-7.442 0-10.419-3.721-10.419-8.93 0-5.953 2.977-10.419 9.674-9.674 5.953 0 9.674 3.721 9.674 8.93 0 5.953-3.721 8.93-8.93 9.674z" />
<glyph unicode="&#xe959;" d="M651.163 315.535c-6.698 0-9.674-3.721-9.674-9.674 0-6.698 3.721-9.674 9.674-9.674s8.93 3.721 8.93 9.674c0.744 5.953-2.977 9.674-8.93 9.674z" />
<glyph unicode="&#xe95a;" d="M621.395 474.791c-0.744 5.953-3.721 9.674-10.419 9.674-5.953 0-8.93-3.721-9.674-9.674 0-5.953 2.977-9.674 8.93-9.674 6.698-0.744 10.419 2.977 11.163 9.674z" />
<glyph unicode="&#xe95b;" d="M1024-64h-1024v1024h1024v-1024zM20.837-43.163h981.581v982.326h-981.581v-982.326z" />
<glyph unicode="&#xe95c;" d="M808.93 165.209c0 129.488 0 258.233 0 387.721-2.233 7.442-5.209 14.14-13.395 16.372s-11.907 8.186-14.884 14.884c-6.698 18.605-20.837 26.047-39.442 25.302-5.209 0-10.419 0-14.884 0-23.814 2.233-41.674-5.209-50.605-29.767-2.233-5.953-5.953-9.674-12.651-9.674-26.047 0-52.837 0-78.884 0-5.209 0-8.186 2.233-8.186 7.442-0.744 9.674-4.465 17.86-10.419 25.302s-2.233 16.372-0.744 24.558c1.488 7.442 8.93 5.209 13.395 5.209 9.674 0.744 14.884 5.953 14.884 15.628 0.744 27.535 0.744 55.814 0 83.349 0 5.953-2.233 10.419-8.186 13.395-49.86 0-98.977 0-148.837 0-5.209-2.233-7.442-6.698-7.442-11.907-0.744-28.279-0.744-57.302 0-85.581 0-8.186 5.209-13.395 13.395-14.14 14.884-2.233 14.884-2.233 16.372-17.86 0.744-5.953 0-10.419-3.721-14.884-3.721-5.209-5.953-12.651-5.953-20.093 0-8.93-5.209-11.163-12.651-10.419s-8.186 5.209-8.93 11.163c-2.977 22.326-9.674 28.279-32.744 28.279-2.977 0-5.953 0-8.93 0-14.14-0.744-22.326-8.93-24.558-23.070-0.744-5.209 2.233-12.651-4.465-14.14s-7.442 7.442-10.419 11.907c-0.744 0.744-0.744 2.233-1.488 2.977-6.698 14.884-18.605 21.581-34.977 22.326-8.93 0-17.86 0-26.791 0-19.349 0.744-32.744-7.442-39.442-25.302-2.233-5.953-5.209-11.907-12.651-14.14-8.93-2.233-13.395-8.186-15.628-17.116 0-129.488 0-258.233 0-387.721 3.721-5.209 8.186-10.419 14.14-14.14 189.023 0 377.302 0 566.326 0 5.209 4.465 9.674 8.93 13.395 14.14zM718.884 585.674c7.442 0 14.884 0 22.326 0 15.628 0 16.372-1.488 21.581-18.605-21.581 0-43.163 0-64 0 2.233 16.372 4.465 18.605 20.093 18.605zM472.558 725.581c29.023 0 58.791 0 87.814 0 8.186 0 11.163-1.488 11.163-10.419-0.744-19.349 0-19.349-18.605-19.349-14.14 0-27.535 0-41.674 0-16.372 0-33.488 0-49.86 0-6.698 0-9.674 0.744-9.674 8.93 0.744 20.837 0 20.837 20.837 20.837zM459.907 656.372c-8.93 0-7.442 5.209-7.442 10.419s0 9.674 7.442 8.93c17.116-0.744 34.977 0 52.093 0s34.977-0.744 52.093 0c8.186 0 7.442-3.721 7.442-9.674 0-5.209 1.488-10.419-7.442-10.419-34.977 0.744-69.209 0.744-104.186 0.744zM500.837 619.907c-2.233 5.953-6.698 6.698-11.907 7.442-3.721 0-6.698-0.744-6.698 4.465 0 5.953 3.721 4.465 6.698 4.465 15.628 0 31.256 0 46.14 0 2.977 0 5.953 1.488 6.698-3.721 0-5.209-2.233-5.953-5.953-5.953-5.953 0-11.163-1.488-12.651-7.442-2.233-5.953 2.233-9.674 5.209-12.651 5.953-6.698 11.907-12.651 18.605-18.605 5.953-5.209 5.209-11.907 3.721-17.86-1.488-5.209-7.442-2.233-11.163-2.233-8.93-0.744-17.86 0-26.791 0-9.674 0-19.349 0-29.023 0-3.721 0-9.674-2.977-11.163 2.233s-2.233 11.907 2.977 17.116c6.698 5.953 13.395 12.651 20.093 19.349 3.721 3.721 7.442 7.442 5.209 13.395zM392.93 587.163c8.186 0 11.907-2.233 9.674-10.419 2.233-8.186-1.488-10.419-9.674-10.419s-10.419 2.233-10.419 10.419c0.744 8.186 2.233 11.163 10.419 10.419zM285.023 585.674c7.442-0.744 15.628 0 23.070 0 2.977 0 5.953 0 8.186-0.744 6.698-2.977 9.674-9.674 9.674-15.628 0-4.465-6.698-2.233-10.419-2.233-17.86-0.744-34.977 0-53.581 0 2.233 14.884 9.674 20.093 23.070 18.605zM417.488 171.163c-57.302 0-115.349 0-172.651 0-8.186 0-10.419 2.233-10.419 10.419 0 8.93 2.977 9.674 10.419 9.674 44.651 0 90.047-0.744 134.698 0 13.395 0 25.302-0.744 34.977-10.419 2.977-2.977 7.442-4.465 11.163-7.442-2.233-2.977-5.209-2.233-8.186-2.233zM234.419 430.14c0 6.698 2.233 8.186 8.93 8.186 41.674 0 83.349 0 126.512 0-50.605-77.395-48.372-152.558 7.442-227.721-46.14 0-90.791 0-136.186 0-5.953 0-7.442 2.233-7.442 7.442 1.488 70.698 1.488 141.395 0.744 212.093zM354.233 331.907c0.744 87.070 72.93 157.023 160.744 156.279 85.581-0.744 156.279-72.93 155.535-157.767-0.744-88.558-71.442-160-157.767-158.512-90.047 0.744-160 71.442-158.512 160zM532.837 508.279c14.14 0 27.535 0 40.93 0 2.977 0 6.698 1.488 7.442-2.977 0.744-2.977 0.744-6.698-0.744-8.93-2.233-2.977-5.209 0.744-8.186 1.488-12.651 2.977-25.302 5.953-39.442 10.419zM680.186 464.372c0-5.209-1.488-6.698-6.698-6.698-11.163 0-22.326 0-33.488 0-3.721 0-5.953 1.488-8.186 2.977-8.186 6.698-17.116 13.395-26.047 19.349-2.977 2.233-4.465 4.465-5.209 8.186-1.488 18.605-1.488 18.605 17.86 18.605 7.442 0 14.884 0 22.326 0 11.163 0 21.581 0 32.744 0 5.953 0 7.442-2.233 7.442-7.442-0.744-10.419-0.744-22.326-0.744-34.977zM788.837 181.581c0-5.209 0.744-10.419-8.186-10.419-59.535 0.744-119.070 0-178.605 0-1.488 0-2.977 0-4.465 0.744 16.372 18.605 36.465 20.093 58.791 19.349 41.674-0.744 82.605-0.744 124.279 0 8.93 0 8.93-3.721 8.186-9.674zM779.907 210.605c-43.163 0-85.581 0-128.744 0-1.488 0-2.977 0-5.953 0.744 18.605 22.326 32 46.14 37.953 72.93 1.488 5.209 3.721 5.953 8.93 6.698 22.326 0.744 38.698 17.86 38.698 39.442 0 20.837-16.372 37.953-37.953 39.442-5.209 0-8.93 0.744-9.674 6.698-5.209 21.581-14.884 40.186-27.535 58.047-0.744 1.488-1.488 2.233-2.233 5.209 43.907 0 86.326 0 128.744 0 7.442 0 6.698-4.465 6.698-8.93 0-26.791 0-54.326 0-81.116 0-43.163 0-85.581 0-128.744 0.744-8.186-1.488-10.419-8.93-10.419zM689.86 338.605c0 2.977-2.977 7.442 0.744 9.674s7.442-0.744 10.419-2.977c11.907-8.186 11.163-26.791-2.233-33.488-5.953-2.977-11.907-4.465-9.674 5.953 0.744 3.721 0.744 6.698 0.744 11.163 0 2.977 0 6.698 0 9.674zM700.279 483.721c0 24.558 0 24.558 24.558 24.558s24.558 0 24.558-25.302c0-24.558 0-24.558-23.814-24.558-25.302 0-25.302 0-25.302 25.302zM789.581 466.605c0-8.93-4.465-8.186-10.419-8.93-6.698-0.744-9.674 1.488-8.93 8.93 0.744 12.651 0.744 25.302 0 37.953-0.744 14.884-8.186 22.326-22.326 22.326-74.419 0-148.093 0-222.512 0-9.674 0-17.86-3.721-20.837-13.395-1.488-6.698-4.465-7.442-10.419-8.186-35.721-3.721-67.721-17.116-95.256-40.186-6.698-5.953-13.395-8.186-21.581-8.186-43.907 0-87.070 0-130.977 0-8.186 0-10.419 1.488-10.419 10.419 0.744 23.070 0.744 46.14 0 69.953 0 8.93 2.977 9.674 10.419 9.674 88.558 0 177.86 0 266.419 0s177.116 0 265.674 0c8.93 0 11.907-2.233 11.163-11.907-0.744-22.326-0.744-45.395 0-68.465z" />
<glyph unicode="&#xe95d;" d="M215.070 165.209c-2.977-11.907 2.233-16.372 14.14-14.14-8.186 2.233-12.651 6.698-14.14 14.14z" />
<glyph unicode="&#xe95e;" d="M808.93 165.209c-1.488-7.442-6.698-11.907-14.14-14.14 11.907-2.233 17.116 2.233 14.14 14.14z" />
<glyph unicode="&#xe95f;" d="M372.837 497.86c-16.372 0-32 0-48.372 0-6.698 0-10.419-3.721-9.674-10.419 0-5.953 3.721-8.93 9.674-8.93 8.186 0 16.372 0 24.558 0s16.372 0 24.558 0c5.953 0 9.674 2.977 9.674 8.93 0 6.698-3.721 10.419-10.419 10.419z" />
<glyph unicode="&#xe960;" d="M274.605 497.86c-8.186 0-19.349 2.977-19.349-9.674s11.907-8.93 19.349-9.674c7.442 0.744 19.349-2.977 18.605 10.419 0 11.163-11.163 8.93-18.605 8.93z" />
<glyph unicode="&#xe961;" d="M526.14 467.349c-81.116 8.186-149.581-54.326-151.814-133.209-2.977-69.953 50.605-139.163 132.465-142.14 69.953-2.977 140.651 49.116 143.628 135.442 2.233 70.698-51.349 132.465-124.279 139.907zM511.256 211.349c-67.721 1.488-119.070 55.070-117.581 122.047 1.488 65.488 56.558 116.837 122.791 115.349 63.256-2.233 115.349-57.302 113.86-121.302-1.488-65.488-55.070-117.581-119.070-116.093z" />
</font>
</defs>
</svg>
